<svg width="29" height="31" viewBox="0 0 29 31" fill="none" xmlns="http://www.w3.org/2000/svg">
<path d="M28.2071 24.2071C28.5976 23.8166 28.5976 23.1834 28.2071 22.7929L21.8431 16.4289C21.4526 16.0384 20.8195 16.0384 20.4289 16.4289C20.0384 16.8195 20.0384 17.4526 20.4289 17.8431L26.0858 23.5L20.4289 29.1569C20.0384 29.5474 20.0384 30.1805 20.4289 30.5711C20.8195 30.9616 21.4526 30.9616 21.8431 30.5711L28.2071 24.2071ZM5 24.5H27.5V22.5H5V24.5ZM13.5 0L5 0V2L13.5 2V0ZM0 5V19.5H2V5H0ZM5 0C2.23858 0 0 2.23858 0 5H2C2 3.34315 3.34315 2 5 2V0ZM5 22.5C3.34315 22.5 2 21.1569 2 19.5H0C0 22.2614 2.23858 24.5 5 24.5V22.5Z" fill="black"/>
</svg>
