<svg xmlns="http://www.w3.org/2000/svg" viewBox="0 0 14 14" fill="currentColor">
    <path fill-rule="evenodd" clip-rule="evenodd"
        d="M0.333008 2.33301C0.333008 1.80257 0.543722 1.29387 0.918794 0.918794C1.29387 0.543722 1.80257 0.333008 2.33301 0.333008H7.66701C8.19744 0.333008 8.70615 0.543722 9.08122 0.918794C9.45629 1.29387 9.66701 1.80257 9.66701 2.33301V3.00001H8.33301V2.33301C8.33301 2.15628 8.26287 1.98678 8.138 1.86172C8.01313 1.73666 7.84373 1.66627 7.66701 1.66601H2.33301C2.15628 1.66627 1.98688 1.73666 1.86201 1.86172C1.73714 1.98678 1.66701 2.15628 1.66701 2.33301V7.66601C1.66701 8.03501 1.96501 8.33301 2.33301 8.33301H3.00001V9.66601H2.33301C1.80257 9.66601 1.29387 9.45529 0.918794 9.08022C0.543722 8.70515 0.333008 8.19644 0.333008 7.66601V2.33301ZM4.33301 6.33301C4.33301 5.80257 4.54372 5.29387 4.91879 4.91879C5.29387 4.54372 5.80257 4.33301 6.33301 4.33301H11.667C12.1974 4.33301 12.7061 4.54372 13.0812 4.91879C13.4563 5.29387 13.667 5.80257 13.667 6.33301V11.666C13.667 12.1964 13.4563 12.7051 13.0812 13.0802C12.7061 13.4553 12.1974 13.666 11.667 13.666H6.33301C5.80257 13.666 5.29387 13.4553 4.91879 13.0802C4.54372 12.7051 4.33301 12.1964 4.33301 11.666V6.33301ZM6.33301 5.66601C6.15628 5.66627 5.98688 5.73666 5.86201 5.86172C5.73714 5.98678 5.66701 6.15628 5.66701 6.33301V11.666C5.66701 12.034 5.96501 12.333 6.33301 12.333H11.667C11.8437 12.3327 12.0131 12.2624 12.138 12.1373C12.2629 12.0122 12.333 11.8427 12.333 11.666V6.33301C12.333 6.15628 12.2629 5.98678 12.138 5.86172C12.0131 5.73666 11.8437 5.66627 11.667 5.66601H6.33301Z"
        fill="currentColor" />
</svg>