<svg width="421" height="399" viewBox="0 0 421 399" fill="none"
    xmlns="http://www.w3.org/2000/svg">
    <path
        d="M210.5 0C210.5 0 229.409 121.766 260.005 152.362C290.601 182.958 420.208 152.362 420.208 152.362C420.208 152.362 290.601 188.329 290.601 246.526C290.601 304.724 340.107 398.888 340.107 398.888C340.107 398.888 260.005 304.724 210.5 304.724C160.995 304.724 80.8934 398.888 80.8934 398.888C80.8934 398.888 130.399 304.724 130.399 246.526C130.399 188.329 0.792038 152.362 0.792038 152.362C0.792038 152.362 130.399 182.958 160.995 152.362C191.591 121.766 210.5 0 210.5 0Z"
        fill="#0dfd56" />
</svg>