<svg width="24" height="24" viewBox="0 0 24 24" fill="none" xmlns="http://www.w3.org/2000/svg">
<path d="M19.9203 17.1935C19.9197 17.2084 19.9189 17.2234 19.9177 17.2384C19.8036 18.6681 18.6683 19.8033 17.2387 19.9174C17.2237 19.9186 17.2087 19.9195 17.1938 19.92L15.6391 20.0441C15.4457 20.0595 15.2627 20.1353 15.1156 20.2605L13.8949 21.3015C12.8035 22.2317 11.197 22.2322 10.1053 21.3019L8.88463 20.2619C8.73659 20.1357 8.55316 20.0597 8.36084 20.0444L6.80414 19.9199C6.7902 19.9194 6.77621 19.9185 6.76218 19.9174C5.3326 19.8033 4.19738 18.6682 4.08322 17.2386L3.95529 15.639C3.93994 15.4467 3.86402 15.2632 3.73786 15.1151L2.69782 13.8944C1.76784 12.8031 1.76714 11.1968 2.69754 10.105L3.73851 8.8843C3.86294 8.73819 3.93886 8.55528 3.9544 8.3606L4.08234 6.76082C4.0838 6.74255 4.08574 6.72443 4.08815 6.70648C4.22559 5.31511 5.33181 4.21465 6.72582 4.08609C6.73756 4.08474 6.74936 4.08359 6.76123 4.08264L8.36032 3.95504C8.55278 3.93968 8.7363 3.86369 8.88423 3.73763L10.1053 2.69759C11.1969 1.76753 12.8032 1.76741 13.8947 2.69759L15.1156 3.73809C15.2622 3.863 15.4447 3.93866 15.639 3.95416L17.238 4.08209C18.6676 4.19626 19.8031 5.33173 19.9172 6.76129L20.0443 8.36009C20.0597 8.55208 20.1357 8.73586 20.2619 8.884L21.302 10.1051C22.2322 11.1966 22.2324 12.8017 21.3021 13.8934L20.2624 15.1148C20.1362 15.2629 20.06 15.4465 20.0446 15.6387L19.9203 17.1935Z" fill="#FFD600"/>
</svg>
