<svg width="84" height="77" viewBox="0 0 84 77" fill="none" xmlns="http://www.w3.org/2000/svg">
<path d="M52.5457 20.6813C67.3043 20.6813 77.9985 32.624 77.9985 45.877C77.9985 50.1099 76.7538 54.4687 74.5693 58.4497C74.1628 59.1048 74.112 59.9362 74.3914 60.7173L76.0934 66.3611C76.4744 67.7217 75.3059 68.7295 74.0104 68.3264L68.8792 66.8146C67.4821 66.3611 66.3898 66.9406 65.0917 67.7217C61.383 69.8885 56.7624 70.9971 52.5965 70.9971C39.997 70.9971 27.1944 61.3472 27.1944 45.8014C27.1944 32.3973 38.1173 20.6813 52.5457 20.6813Z" fill="url(#paint0_linear_1313_429)"/>
<g opacity="0.5" filter="url(#filter0_f_1313_429)">
<path d="M68.7665 46.1276C68.7665 55.1164 61.4218 62.3998 52.3611 62.3998C43.3003 62.3998 35.9556 55.1164 35.9556 46.1276C35.9556 37.1421 43.3003 29.8553 52.3611 29.8553C61.4218 29.8553 68.7665 37.1421 68.7665 46.1276Z" fill="#8237FF"/>
</g>
<g filter="url(#filter1_b_1313_429)">
<mask id="path-3-outside-1_1313_429" maskUnits="userSpaceOnUse" x="-0.00146484" y="0" width="67" height="67" fill="black">
<rect fill="white" x="-0.00146484" width="67" height="67"/>
<path d="M33.4774 1C14.6449 1 0.998535 16.2395 0.998535 33.1508C0.998535 38.5521 2.58682 44.1142 5.37443 49.194C5.89306 50.0299 5.95789 51.0909 5.60133 52.0876L3.42959 59.2893C2.94338 61.0255 4.43443 62.3115 6.08754 61.7971L12.6352 59.868C14.418 59.2893 15.8118 60.0288 17.4681 61.0255C22.2006 63.7904 28.0967 65.2051 33.4126 65.2051C49.49 65.2051 65.8267 52.8913 65.8267 33.0543C65.8267 15.9501 51.8886 1 33.4774 1Z"/>
</mask>
<path d="M33.4774 1C14.6449 1 0.998535 16.2395 0.998535 33.1508C0.998535 38.5521 2.58682 44.1142 5.37443 49.194C5.89306 50.0299 5.95789 51.0909 5.60133 52.0876L3.42959 59.2893C2.94338 61.0255 4.43443 62.3115 6.08754 61.7971L12.6352 59.868C14.418 59.2893 15.8118 60.0288 17.4681 61.0255C22.2006 63.7904 28.0967 65.2051 33.4126 65.2051C49.49 65.2051 65.8267 52.8913 65.8267 33.0543C65.8267 15.9501 51.8886 1 33.4774 1Z" fill="#BA90FF" fill-opacity="0.35"/>
<path d="M33.4774 1.85377C33.949 1.85377 34.3312 1.47153 34.3312 1C34.3312 0.528473 33.949 0.146225 33.4774 0.146225V1.85377ZM5.37443 49.194L4.62595 49.6047C4.63327 49.6181 4.64093 49.6312 4.64895 49.6441L5.37443 49.194ZM5.60133 52.0876L4.79745 51.8C4.79259 51.8136 4.78808 51.8273 4.78392 51.8411L5.60133 52.0876ZM3.42959 59.2893L2.61217 59.0428C2.61054 59.0482 2.60897 59.0536 2.60745 59.0591L3.42959 59.2893ZM6.08754 61.7971L5.84623 60.978L5.83387 60.9819L6.08754 61.7971ZM12.6352 59.868L12.8765 60.687C12.8839 60.6848 12.8914 60.6825 12.8988 60.6801L12.6352 59.868ZM17.4681 61.0255L17.0279 61.7571L17.0374 61.7626L17.4681 61.0255ZM33.4774 0.146225C33.0059 0.146225 32.6237 0.528473 32.6237 1C32.6237 1.47153 33.0059 1.85377 33.4774 1.85377V0.146225ZM33.4774 0.146225C14.1517 0.146225 0.14476 15.7899 0.14476 33.1508H1.85231C1.85231 16.6891 15.138 1.85377 33.4774 1.85377V0.146225ZM0.14476 33.1508C0.14476 38.7165 1.78004 44.4187 4.62595 49.6047L6.12292 48.7832C3.39361 43.8097 1.85231 38.3877 1.85231 33.1508H0.14476ZM4.64895 49.6441C5.00963 50.2255 5.08054 51.0087 4.79745 51.8L6.40522 52.3751C6.83524 51.1731 6.77648 49.8344 6.09992 48.7439L4.64895 49.6441ZM4.78392 51.8411L2.61217 59.0428L4.24701 59.5358L6.41875 52.3341L4.78392 51.8411ZM2.60745 59.0591C2.28196 60.2213 2.61175 61.3146 3.38018 62.0172C4.13787 62.7101 5.24481 62.9535 6.34122 62.6123L5.83387 60.9819C5.27716 61.1551 4.81202 61.0127 4.53245 60.7571C4.26363 60.5113 4.09101 60.0935 4.25173 59.5196L2.60745 59.0591ZM6.32883 62.6161L12.8765 60.687L12.3939 59.0491L5.84626 60.9781L6.32883 62.6161ZM12.8988 60.6801C14.2742 60.2336 15.3509 60.7479 17.0279 61.757L17.9083 60.2939C16.2727 59.3097 14.5617 58.345 12.3716 59.056L12.8988 60.6801ZM17.0374 61.7626C21.9141 64.6119 27.9618 66.0588 33.4126 66.0588V64.3513C28.2316 64.3513 22.4871 62.969 17.8988 60.2883L17.0374 61.7626ZM33.4126 66.0588C49.8859 66.0588 66.6805 53.4351 66.6805 33.0543H64.9729C64.9729 52.3475 49.0941 64.3513 33.4126 64.3513V66.0588ZM66.6805 33.0543C66.6805 15.491 52.3725 0.146225 33.4774 0.146225V1.85377C51.4048 1.85377 64.9729 16.4092 64.9729 33.0543H66.6805Z" fill="url(#paint1_linear_1313_429)" mask="url(#path-3-outside-1_1313_429)"/>
</g>
<g filter="url(#filter2_bd_1313_429)">
<mask id="path-5-inside-2_1313_429" fill="white">
<path fill-rule="evenodd" clip-rule="evenodd" d="M33.3498 37.2968C31.0484 37.2647 29.2008 35.4321 29.2008 33.1494C29.2008 30.8988 31.0808 29.0341 33.3498 29.0662C35.6512 29.0662 37.4988 30.8988 37.4988 33.1815C37.4988 35.4321 35.6512 37.2968 33.3498 37.2968ZM18.4058 37.2964C16.1369 37.2964 14.2568 35.4317 14.2568 33.1811C14.2568 30.8984 16.1044 29.0658 18.4058 29.0658C20.7072 29.0658 22.5548 30.8984 22.5548 33.1811C22.5548 35.4317 20.7072 37.2643 18.4058 37.2964ZM44.1429 33.1811C44.1429 35.4317 45.9905 37.2964 48.2919 37.2964C50.5933 37.2964 52.4409 35.4317 52.4409 33.1811C52.4409 30.8984 50.5933 29.0658 48.2919 29.0658C45.9905 29.0658 44.1429 30.8984 44.1429 33.1811Z"/>
</mask>
<path fill-rule="evenodd" clip-rule="evenodd" d="M33.3498 37.2968C31.0484 37.2647 29.2008 35.4321 29.2008 33.1494C29.2008 30.8988 31.0808 29.0341 33.3498 29.0662C35.6512 29.0662 37.4988 30.8988 37.4988 33.1815C37.4988 35.4321 35.6512 37.2968 33.3498 37.2968ZM18.4058 37.2964C16.1369 37.2964 14.2568 35.4317 14.2568 33.1811C14.2568 30.8984 16.1044 29.0658 18.4058 29.0658C20.7072 29.0658 22.5548 30.8984 22.5548 33.1811C22.5548 35.4317 20.7072 37.2643 18.4058 37.2964ZM44.1429 33.1811C44.1429 35.4317 45.9905 37.2964 48.2919 37.2964C50.5933 37.2964 52.4409 35.4317 52.4409 33.1811C52.4409 30.8984 50.5933 29.0658 48.2919 29.0658C45.9905 29.0658 44.1429 30.8984 44.1429 33.1811Z" fill="url(#paint2_linear_1313_429)"/>
<path d="M33.3498 37.2968L33.345 37.6383H33.3498V37.2968ZM33.3498 29.0662L33.3449 29.4077H33.3498V29.0662ZM18.4058 37.2964V37.638L18.4106 37.6379L18.4058 37.2964ZM28.8593 33.1494C28.8593 35.6242 30.8623 37.6036 33.345 37.6383L33.3546 36.9554C31.2345 36.9257 29.5423 35.24 29.5423 33.1494H28.8593ZM33.3546 28.7248C30.895 28.6899 28.8593 30.7085 28.8593 33.1494H29.5423C29.5423 31.0891 31.2666 29.3783 33.3449 29.4077L33.3546 28.7248ZM37.8403 33.1815C37.8403 30.7076 35.8372 28.7247 33.3498 28.7247V29.4077C35.4652 29.4077 37.1573 31.0901 37.1573 33.1815H37.8403ZM33.3498 37.6383C35.8389 37.6383 37.8403 35.6216 37.8403 33.1815H37.1573C37.1573 35.2426 35.4635 36.9553 33.3498 36.9553V37.6383ZM13.9153 33.1811C13.9153 35.6229 15.9509 37.6379 18.4058 37.6379V36.9549C16.3228 36.9549 14.5983 35.2404 14.5983 33.1811H13.9153ZM18.4058 28.7243C15.9185 28.7243 13.9153 30.7072 13.9153 33.1811H14.5983C14.5983 31.0897 16.2904 29.4073 18.4058 29.4073V28.7243ZM22.8963 33.1811C22.8963 30.7072 20.8932 28.7243 18.4058 28.7243V29.4073C20.5213 29.4073 22.2133 31.0897 22.2133 33.1811H22.8963ZM18.4106 37.6379C20.8916 37.6032 22.8963 35.6255 22.8963 33.1811H22.2133C22.2133 35.2379 20.5228 36.9253 18.4011 36.9549L18.4106 37.6379ZM48.2919 36.9549C46.1782 36.9549 44.4844 35.2422 44.4844 33.1811H43.8013C43.8013 35.6212 45.8027 37.6379 48.2919 37.6379V36.9549ZM52.0993 33.1811C52.0993 35.2422 50.4055 36.9549 48.2919 36.9549V37.6379C50.781 37.6379 52.7824 35.6212 52.7824 33.1811H52.0993ZM48.2919 29.4073C50.4073 29.4073 52.0993 31.0897 52.0993 33.1811H52.7824C52.7824 30.7072 50.7792 28.7243 48.2919 28.7243V29.4073ZM44.4844 33.1811C44.4844 31.0897 46.1764 29.4073 48.2919 29.4073V28.7243C45.8045 28.7243 43.8013 30.7072 43.8013 33.1811H44.4844Z" fill="url(#paint3_linear_1313_429)" mask="url(#path-5-inside-2_1313_429)"/>
</g>
<defs>
<filter id="filter0_f_1313_429" x="21.4414" y="15.3412" width="61.8394" height="61.5728" filterUnits="userSpaceOnUse" color-interpolation-filters="sRGB">
<feFlood flood-opacity="0" result="BackgroundImageFix"/>
<feBlend mode="normal" in="SourceGraphic" in2="BackgroundImageFix" result="shape"/>
<feGaussianBlur stdDeviation="7.25709" result="effect1_foregroundBlur_1313_429"/>
</filter>
<filter id="filter1_b_1313_429" x="-20.3461" y="-20.3444" width="107.517" height="106.894" filterUnits="userSpaceOnUse" color-interpolation-filters="sRGB">
<feFlood flood-opacity="0" result="BackgroundImageFix"/>
<feGaussianBlur in="BackgroundImageFix" stdDeviation="10.2453"/>
<feComposite in2="SourceAlpha" operator="in" result="effect1_backgroundBlur_1313_429"/>
<feBlend mode="normal" in="SourceGraphic" in2="effect1_backgroundBlur_1313_429" result="shape"/>
</filter>
<filter id="filter2_bd_1313_429" x="1.45021" y="16.2592" width="63.7973" height="33.8442" filterUnits="userSpaceOnUse" color-interpolation-filters="sRGB">
<feFlood flood-opacity="0" result="BackgroundImageFix"/>
<feGaussianBlur in="BackgroundImageFix" stdDeviation="6.40331"/>
<feComposite in2="SourceAlpha" operator="in" result="effect1_backgroundBlur_1313_429"/>
<feColorMatrix in="SourceAlpha" type="matrix" values="0 0 0 0 0 0 0 0 0 0 0 0 0 0 0 0 0 0 127 0" result="hardAlpha"/>
<feOffset dx="4.26888" dy="4.26888"/>
<feGaussianBlur stdDeviation="4.26888"/>
<feColorMatrix type="matrix" values="0 0 0 0 0.577356 0 0 0 0 0.359375 0 0 0 0 0.9375 0 0 0 0.5 0"/>
<feBlend mode="normal" in2="effect1_backgroundBlur_1313_429" result="effect2_dropShadow_1313_429"/>
<feBlend mode="normal" in="SourceGraphic" in2="effect2_dropShadow_1313_429" result="shape"/>
</filter>
<linearGradient id="paint0_linear_1313_429" x1="52.5965" y1="20.6813" x2="52.5965" y2="70.9971" gradientUnits="userSpaceOnUse">
<stop stop-color="#BC94FF"/>
<stop offset="1" stop-color="#9F66FF"/>
</linearGradient>
<linearGradient id="paint1_linear_1313_429" x1="11.3181" y1="8.47997" x2="52.189" y2="59.5908" gradientUnits="userSpaceOnUse">
<stop stop-color="white" stop-opacity="0.25"/>
<stop offset="1" stop-color="white" stop-opacity="0"/>
</linearGradient>
<linearGradient id="paint2_linear_1313_429" x1="49.7336" y1="30.5522" x2="8.10736" y2="36.8483" gradientUnits="userSpaceOnUse">
<stop stop-color="white"/>
<stop offset="1" stop-color="white" stop-opacity="0.2"/>
</linearGradient>
<linearGradient id="paint3_linear_1313_429" x1="20.3351" y1="30.0247" x2="22.1498" y2="40.4511" gradientUnits="userSpaceOnUse">
<stop stop-color="white" stop-opacity="0.25"/>
<stop offset="1" stop-color="white" stop-opacity="0"/>
</linearGradient>
</defs>
</svg>
