<svg width="90" height="90" viewBox="0 0 90 90" fill="none" xmlns="http://www.w3.org/2000/svg">
<path d="M74.9142 38.4743L72.5818 36.1424C71.6747 35.2355 71.1564 34.0048 71.1564 32.7125V29.3733C71.1564 23.9969 66.7831 19.6278 61.4056 19.6278H58.069C56.7732 19.6278 55.5422 19.1063 54.6352 18.1995L52.2704 15.8384C48.4478 12.049 42.2604 12.049 38.4703 15.8676L36.1379 18.1995C35.2308 19.1063 33.9998 19.6278 32.704 19.6278H29.3674C23.9899 19.6278 19.6166 23.9969 19.6166 29.3733V32.6769C19.6166 34.0048 19.0983 35.2355 18.1913 36.1424L15.8265 38.5099C12.0363 42.3285 12.0687 48.5178 15.8589 52.3039L18.1913 54.6035C19.0983 55.5427 19.6166 56.7735 19.6166 58.0722V61.4049C19.6166 66.7813 23.9899 71.1569 29.3674 71.1569H32.704C33.9998 71.1569 35.2308 71.6719 36.1379 72.5787L38.5027 74.9463C40.414 76.8248 42.9083 77.7608 45.4027 77.7608C47.8971 77.7608 50.3915 76.8248 52.3028 74.9107L54.6352 72.5787C55.5422 71.6719 56.7732 71.1569 58.069 71.1569H61.4056C66.7831 71.1569 71.1564 66.7813 71.1564 61.4049V58.0722C71.1564 56.7735 71.6747 55.5427 72.5818 54.6359L74.8818 52.3363C74.9142 52.3039 74.9466 52.2748 74.979 52.2392C76.7931 50.3963 77.7973 47.9316 77.7649 45.3405C77.7649 42.7495 76.7607 40.288 74.9142 38.4743Z" fill="url(#paint0_linear_1313_473)"/>
<g opacity="0.5" filter="url(#filter0_f_1313_473)">
<path d="M64.935 40.808L63.3907 39.264C62.7902 38.6636 62.447 37.8487 62.447 36.9931V34.7823C62.447 31.2227 59.5515 28.3299 55.9911 28.3299H53.782C52.9241 28.3299 52.109 27.9847 51.5085 27.3843L49.9428 25.821C47.4119 23.3121 43.3153 23.3121 40.8059 25.8403L39.2617 27.3843C38.6611 27.9847 37.8461 28.3299 36.9882 28.3299H34.779C31.2187 28.3299 28.3232 31.2227 28.3232 34.7823V36.9696C28.3232 37.8487 27.98 38.6636 27.3795 39.264L25.8138 40.8315C23.3043 43.3597 23.3258 47.4576 25.8352 49.9644L27.3795 51.4869C27.98 52.1087 28.3232 52.9236 28.3232 53.7835V55.99C28.3232 59.5497 31.2187 62.4467 34.779 62.4467H36.9882C37.8461 62.4467 38.6611 62.7877 39.2617 63.3881L40.8274 64.9556C42.0928 66.1993 43.7443 66.819 45.3958 66.819C47.0473 66.819 48.6988 66.1993 49.9642 64.932L51.5085 63.3881C52.109 62.7877 52.9241 62.4467 53.782 62.4467H55.9911C59.5515 62.4467 62.447 59.5497 62.447 55.99V53.7835C62.447 52.9236 62.7902 52.1087 63.3907 51.5083L64.9135 49.9858C64.935 49.9644 64.9564 49.9451 64.9779 49.9215C66.1789 48.7013 66.8438 47.0695 66.8224 45.354C66.8224 43.6385 66.1575 42.0088 64.935 40.808Z" fill="#E46800"/>
</g>
<g filter="url(#filter1_b_1313_473)">
<mask id="path-3-outside-1_1313_473" maskUnits="userSpaceOnUse" x="23.2344" y="23.2392" width="67" height="67" fill="black">
<rect fill="white" x="23.2344" y="23.2392" width="67" height="67"/>
<path d="M86.1485 49.7135L83.8161 47.3816C82.9091 46.4747 82.3908 45.244 82.3908 43.9517V40.6125C82.3908 35.2361 78.0175 30.867 72.64 30.867H69.3034C68.0076 30.867 66.7766 30.3455 65.8695 29.4387L63.5047 27.0776C59.6822 23.2882 53.4948 23.2882 49.7047 27.1067L47.3722 29.4387C46.4652 30.3455 45.2342 30.867 43.9384 30.867H40.6018C35.2243 30.867 30.851 35.2361 30.851 40.6125V43.9161C30.851 45.244 30.3327 46.4747 29.4257 47.3816L27.0609 49.7491C23.2707 53.5677 23.3031 59.757 27.0932 63.5431L29.4257 65.8427C30.3327 66.7819 30.851 68.0126 30.851 69.3114V72.6441C30.851 78.0205 35.2243 82.3961 40.6018 82.3961H43.9384C45.2342 82.3961 46.4652 82.9111 47.3722 83.8179L49.7371 86.1855C51.6483 88.064 54.1427 89 56.6371 89C59.1315 89 61.6259 88.064 63.5371 86.1499L65.8695 83.8179C66.7766 82.9111 68.0076 82.3961 69.3034 82.3961H72.64C78.0175 82.3961 82.3908 78.0205 82.3908 72.6441V69.3114C82.3908 68.0126 82.9091 66.7819 83.8161 65.875L86.1161 63.5755C86.1485 63.5431 86.1809 63.514 86.2133 63.4783C88.0274 61.6355 89.0317 59.1708 88.9993 56.5797C88.9993 53.9887 87.995 51.5272 86.1485 49.7135Z"/>
</mask>
<path d="M86.1485 49.7135L83.8161 47.3816C82.9091 46.4747 82.3908 45.244 82.3908 43.9517V40.6125C82.3908 35.2361 78.0175 30.867 72.64 30.867H69.3034C68.0076 30.867 66.7766 30.3455 65.8695 29.4387L63.5047 27.0776C59.6822 23.2882 53.4948 23.2882 49.7047 27.1067L47.3722 29.4387C46.4652 30.3455 45.2342 30.867 43.9384 30.867H40.6018C35.2243 30.867 30.851 35.2361 30.851 40.6125V43.9161C30.851 45.244 30.3327 46.4747 29.4257 47.3816L27.0609 49.7491C23.2707 53.5677 23.3031 59.757 27.0932 63.5431L29.4257 65.8427C30.3327 66.7819 30.851 68.0126 30.851 69.3114V72.6441C30.851 78.0205 35.2243 82.3961 40.6018 82.3961H43.9384C45.2342 82.3961 46.4652 82.9111 47.3722 83.8179L49.7371 86.1855C51.6483 88.064 54.1427 89 56.6371 89C59.1315 89 61.6259 88.064 63.5371 86.1499L65.8695 83.8179C66.7766 82.9111 68.0076 82.3961 69.3034 82.3961H72.64C78.0175 82.3961 82.3908 78.0205 82.3908 72.6441V69.3114C82.3908 68.0126 82.9091 66.7819 83.8161 65.875L86.1161 63.5755C86.1485 63.5431 86.1809 63.514 86.2133 63.4783C88.0274 61.6355 89.0317 59.1708 88.9993 56.5797C88.9993 53.9887 87.995 51.5272 86.1485 49.7135Z" fill="#FFCBB9" fill-opacity="0.35"/>
<path d="M83.8161 47.3816L84.5232 46.6744L83.8161 47.3816ZM65.8695 29.4387L66.5766 28.7315L66.5761 28.731L65.8695 29.4387ZM63.5047 27.0776L64.2113 26.3699L64.2088 26.3674L63.5047 27.0776ZM49.7047 27.1067L50.4117 27.8139L50.4144 27.8112L49.7047 27.1067ZM47.3722 29.4387L48.0793 30.1459L47.3722 29.4387ZM29.4257 47.3816L28.7186 46.6744L28.7181 46.6749L29.4257 47.3816ZM27.0609 49.7491L26.3533 49.0424L26.3511 49.0447L27.0609 49.7491ZM27.0932 63.5431L26.3865 64.2506L26.3912 64.2552L27.0932 63.5431ZM29.4257 65.8427L30.145 65.148C30.1393 65.1421 30.1336 65.1363 30.1277 65.1306L29.4257 65.8427ZM47.3722 83.8179L48.0798 83.1112L48.0793 83.1108L47.3722 83.8179ZM49.7371 86.1855L49.0295 86.8922L49.0361 86.8987L49.7371 86.1855ZM63.5371 86.1499L62.8301 85.4427L62.8295 85.4433L63.5371 86.1499ZM65.8695 83.8179L66.5766 84.5251V84.5251L65.8695 83.8179ZM83.8161 65.875L84.5232 66.5822L83.8161 65.875ZM86.1161 63.5755L85.4091 62.8683L86.1161 63.5755ZM86.2133 63.4783L85.5007 62.7768C85.4914 62.7862 85.4823 62.7958 85.4735 62.8056L86.2133 63.4783ZM88.9993 56.5797H87.9992L87.9993 56.5922L88.9993 56.5797ZM86.8556 49.0063L84.5232 46.6744L83.1091 48.0887L85.4415 50.4207L86.8556 49.0063ZM84.5232 46.6744C83.8013 45.9527 83.3908 44.9753 83.3908 43.9517H81.3908C81.3908 45.5126 82.0169 46.9968 83.1091 48.0887L84.5232 46.6744ZM83.3908 43.9517V40.6125H81.3908V43.9517H83.3908ZM83.3908 40.6125C83.3908 34.6832 78.5692 29.867 72.64 29.867V31.867C77.4659 31.867 81.3908 35.789 81.3908 40.6125H83.3908ZM72.64 29.867H69.3034V31.867H72.64V29.867ZM69.3034 29.867C68.2774 29.867 67.2994 29.4542 66.5766 28.7315L65.1625 30.1459C66.2538 31.2369 67.7377 31.867 69.3034 31.867V29.867ZM66.5761 28.731L64.2113 26.3699L62.7982 27.7853L65.163 30.1463L66.5761 28.731ZM64.2088 26.3674C59.9976 22.1928 53.1774 22.1885 48.9949 26.4023L50.4144 27.8112C53.8122 24.3879 59.3667 24.3836 62.8007 27.7878L64.2088 26.3674ZM48.9976 26.3996L46.6652 28.7315L48.0793 30.1459L50.4117 27.8139L48.9976 26.3996ZM46.6652 28.7315C45.9424 29.4542 44.9643 29.867 43.9384 29.867V31.867C45.5041 31.867 46.988 31.2369 48.0793 30.1459L46.6652 28.7315ZM43.9384 29.867H40.6018V31.867H43.9384V29.867ZM40.6018 29.867C34.6726 29.867 29.851 34.6832 29.851 40.6125H31.851C31.851 35.789 35.7759 31.867 40.6018 31.867V29.867ZM29.851 40.6125V43.9161H31.851V40.6125H29.851ZM29.851 43.9161C29.851 44.9792 29.4377 45.9554 28.7186 46.6744L30.1327 48.0887C31.2277 46.994 31.851 45.5087 31.851 43.9161H29.851ZM28.7181 46.6749L26.3533 49.0424L27.7684 50.4558L30.1332 48.0883L28.7181 46.6749ZM26.3511 49.0447C22.1713 53.2558 22.208 60.0765 26.3865 64.2506L27.8 62.8356C24.3982 59.4374 24.3701 53.8795 27.7706 50.4536L26.3511 49.0447ZM26.3912 64.2552L28.7236 66.5548L30.1277 65.1306L27.7953 62.831L26.3912 64.2552ZM28.7063 66.5373C29.4416 67.2987 29.851 68.2835 29.851 69.3114H31.851C31.851 67.7418 31.2238 66.2651 30.145 65.148L28.7063 66.5373ZM29.851 69.3114V72.6441H31.851V69.3114H29.851ZM29.851 72.6441C29.851 78.5726 34.6718 83.3961 40.6018 83.3961V81.3961C35.7768 81.3961 31.851 77.4685 31.851 72.6441H29.851ZM40.6018 83.3961H43.9384V81.3961H40.6018V83.3961ZM43.9384 83.3961C44.9677 83.3961 45.9448 83.8048 46.6652 84.5251L48.0793 83.1108C46.9856 82.0173 45.5007 81.3961 43.9384 81.3961V83.3961ZM46.6647 84.5246L49.0295 86.8922L50.4446 85.4788L48.0798 83.1112L46.6647 84.5246ZM49.0361 86.8987C51.1431 88.9695 53.8929 90 56.6371 90V88C54.3925 88 52.1536 87.1585 50.438 85.4723L49.0361 86.8987ZM56.6371 90C59.3824 90 62.1359 88.9685 64.2448 86.8564L62.8295 85.4433C61.1158 87.1595 58.8806 88 56.6371 88V90ZM64.2442 86.857L66.5766 84.5251L65.1625 83.1108L62.8301 85.4427L64.2442 86.857ZM66.5766 84.5251C67.297 83.8048 68.274 83.3961 69.3034 83.3961V81.3961C67.7411 81.3961 66.2562 82.0173 65.1625 83.1108L66.5766 84.5251ZM69.3034 83.3961H72.64V81.3961H69.3034V83.3961ZM72.64 83.3961C78.57 83.3961 83.3908 78.5726 83.3908 72.6441H81.3908C81.3908 77.4685 77.465 81.3961 72.64 81.3961V83.3961ZM83.3908 72.6441V69.3114H81.3908V72.6441H83.3908ZM83.3908 69.3114C83.3908 68.2806 83.8018 67.3035 84.5232 66.5822L83.1091 65.1679C82.0164 66.2604 81.3908 67.7447 81.3908 69.3114H83.3908ZM84.5232 66.5822L86.8232 64.2827L85.4091 62.8683L83.1091 65.1679L84.5232 66.5822ZM86.8232 64.2827C86.8342 64.2717 86.8336 64.2727 86.8627 64.2442C86.8844 64.2231 86.9171 64.1908 86.9532 64.1511L85.4735 62.8056C85.4771 62.8016 85.4774 62.8016 85.4667 62.812C85.46 62.8186 85.4561 62.8223 85.4447 62.8333C85.4354 62.8424 85.4228 62.8546 85.4091 62.8683L86.8232 64.2827ZM86.926 64.1799C88.9251 62.149 90.035 59.4281 89.9992 56.5672L87.9993 56.5922C88.0284 58.9134 87.1297 61.1219 85.5007 62.7768L86.926 64.1799ZM89.9993 56.5797C89.9993 53.728 88.8926 51.0071 86.8493 49.0001L85.4478 50.4269C87.0975 52.0473 87.9993 54.2493 87.9993 56.5797H89.9993Z" fill="url(#paint1_linear_1313_473)" mask="url(#path-3-outside-1_1313_473)"/>
</g>
<g filter="url(#filter2_bd_1313_473)">
<mask id="path-5-inside-2_1313_473" fill="white">
<path fill-rule="evenodd" clip-rule="evenodd" d="M50.2878 66.9435C49.7695 67.4941 49.0568 67.7856 48.2793 67.7856C47.5343 67.7856 46.8216 67.4941 46.3033 66.9435C45.2018 65.8423 45.2018 64.0286 46.3033 62.9274L62.9541 46.28C64.0555 45.1821 65.8372 45.1821 66.9386 46.28C68.04 47.3812 68.04 49.1982 66.9386 50.2994L50.2878 66.9435ZM64.9625 67.7857C63.3751 67.7857 62.1118 66.5225 62.1118 64.9355C62.1118 63.3842 63.3751 62.1178 64.9625 62.1178C66.5174 62.1178 67.7808 63.3842 67.7808 64.9355C67.7808 66.5225 66.5174 67.7857 64.9625 67.7857ZM51.13 48.2883C51.13 46.7336 49.8666 45.4705 48.3117 45.4705C46.7567 45.4705 45.4609 46.7336 45.4609 48.2883C45.4609 49.8785 46.7567 51.1384 48.3117 51.1384C49.8666 51.1384 51.13 49.8785 51.13 48.2883Z"/>
</mask>
<path fill-rule="evenodd" clip-rule="evenodd" d="M50.2878 66.9435C49.7695 67.4941 49.0568 67.7856 48.2793 67.7856C47.5343 67.7856 46.8216 67.4941 46.3033 66.9435C45.2018 65.8423 45.2018 64.0286 46.3033 62.9274L62.9541 46.28C64.0555 45.1821 65.8372 45.1821 66.9386 46.28C68.04 47.3812 68.04 49.1982 66.9386 50.2994L50.2878 66.9435ZM64.9625 67.7857C63.3751 67.7857 62.1118 66.5225 62.1118 64.9355C62.1118 63.3842 63.3751 62.1178 64.9625 62.1178C66.5174 62.1178 67.7808 63.3842 67.7808 64.9355C67.7808 66.5225 66.5174 67.7857 64.9625 67.7857ZM51.13 48.2883C51.13 46.7336 49.8666 45.4705 48.3117 45.4705C46.7567 45.4705 45.4609 46.7336 45.4609 48.2883C45.4609 49.8785 46.7567 51.1384 48.3117 51.1384C49.8666 51.1384 51.13 49.8785 51.13 48.2883Z" fill="url(#paint2_linear_1313_473)"/>
<path d="M50.2878 66.9435L50.0049 66.6605L49.9965 66.6693L50.2878 66.9435ZM46.3033 66.9435L46.5946 66.6692L46.5861 66.6606L46.3033 66.9435ZM46.3033 62.9274L46.5861 63.2103H46.5861L46.3033 62.9274ZM62.9541 46.28L62.6717 45.9967L62.6713 45.9972L62.9541 46.28ZM66.9386 46.28L67.2214 45.9972L67.221 45.9967L66.9386 46.28ZM66.9386 50.2994L67.2214 50.5823L67.2214 50.5822L66.9386 50.2994ZM48.2793 68.1856C49.1594 68.1856 49.98 67.854 50.579 67.2177L49.9965 66.6693C49.5589 67.1342 48.9542 67.3856 48.2793 67.3856V68.1856ZM46.012 67.2177C46.6094 67.8523 47.4291 68.1856 48.2793 68.1856V67.3856C47.6394 67.3856 47.0338 67.1359 46.5945 66.6693L46.012 67.2177ZM46.0204 62.6445C44.7628 63.9019 44.7628 65.969 46.0204 67.2264L46.5861 66.6606C45.6409 65.7157 45.6409 64.1552 46.5861 63.2103L46.0204 62.6445ZM62.6713 45.9972L46.0204 62.6445L46.5861 63.2103L63.2369 46.5629L62.6713 45.9972ZM67.221 45.9967C65.9635 44.7432 63.9292 44.7432 62.6717 45.9967L63.2365 46.5633C64.1818 45.621 65.7109 45.621 66.6562 46.5633L67.221 45.9967ZM67.2214 50.5822C68.4791 49.3248 68.4791 47.2546 67.2214 45.9972L66.6558 46.5629C67.601 47.5079 67.601 49.0715 66.6558 50.0165L67.2214 50.5822ZM50.5706 67.2264L67.2214 50.5823L66.6558 50.0165L50.005 66.6606L50.5706 67.2264ZM61.7118 64.9355C61.7118 66.7435 63.1543 68.1857 64.9625 68.1857V67.3857C63.596 67.3857 62.5118 66.3016 62.5118 64.9355H61.7118ZM64.9625 61.7178C63.157 61.7178 61.7118 63.1605 61.7118 64.9355H62.5118C62.5118 63.6078 63.5933 62.5178 64.9625 62.5178V61.7178ZM68.1808 64.9355C68.1808 63.1635 66.7386 61.7178 64.9625 61.7178V62.5178C66.2963 62.5178 67.3808 63.6049 67.3808 64.9355H68.1808ZM64.9625 68.1857C66.7412 68.1857 68.1808 66.7406 68.1808 64.9355H67.3808C67.3808 66.3045 66.2936 67.3857 64.9625 67.3857V68.1857ZM48.3117 45.8705C49.6458 45.8705 50.73 46.9546 50.73 48.2883H51.53C51.53 46.5126 50.0874 45.0705 48.3117 45.0705V45.8705ZM45.8609 48.2883C45.8609 46.9605 46.9716 45.8705 48.3117 45.8705V45.0705C46.5418 45.0705 45.0609 46.5067 45.0609 48.2883H45.8609ZM48.3117 50.7384C46.9743 50.7384 45.8609 49.6543 45.8609 48.2883H45.0609C45.0609 50.1027 46.5391 51.5384 48.3117 51.5384V50.7384ZM50.73 48.2883C50.73 49.6602 49.6431 50.7384 48.3117 50.7384V51.5384C50.0901 51.5384 51.53 50.0968 51.53 48.2883H50.73Z" fill="url(#paint3_linear_1313_473)" mask="url(#path-5-inside-2_1313_473)"/>
</g>
<defs>
<filter id="filter0_f_1313_473" x="0.942383" y="0.941757" width="88.8804" height="88.8773" filterUnits="userSpaceOnUse" color-interpolation-filters="sRGB">
<feFlood flood-opacity="0" result="BackgroundImageFix"/>
<feBlend mode="normal" in="SourceGraphic" in2="BackgroundImageFix" result="shape"/>
<feGaussianBlur stdDeviation="11.5" result="effect1_foregroundBlur_1313_473"/>
</filter>
<filter id="filter1_b_1313_473" x="-0.765625" y="-0.760803" width="114.766" height="114.761" filterUnits="userSpaceOnUse" color-interpolation-filters="sRGB">
<feFlood flood-opacity="0" result="BackgroundImageFix"/>
<feGaussianBlur in="BackgroundImageFix" stdDeviation="12"/>
<feComposite in2="SourceAlpha" operator="in" result="effect1_backgroundBlur_1313_473"/>
<feBlend mode="normal" in="SourceGraphic" in2="effect1_backgroundBlur_1313_473" result="shape"/>
</filter>
<filter id="filter2_bd_1313_473" x="30.4609" y="30.4566" width="52.3198" height="52.3291" filterUnits="userSpaceOnUse" color-interpolation-filters="sRGB">
<feFlood flood-opacity="0" result="BackgroundImageFix"/>
<feGaussianBlur in="BackgroundImageFix" stdDeviation="7.5"/>
<feComposite in2="SourceAlpha" operator="in" result="effect1_backgroundBlur_1313_473"/>
<feColorMatrix in="SourceAlpha" type="matrix" values="0 0 0 0 0 0 0 0 0 0 0 0 0 0 0 0 0 0 127 0" result="hardAlpha"/>
<feOffset dx="5" dy="5"/>
<feGaussianBlur stdDeviation="5"/>
<feColorMatrix type="matrix" values="0 0 0 0 1 0 0 0 0 0.580392 0 0 0 0 0.247059 0 0 0 0.5 0"/>
<feBlend mode="normal" in2="effect1_backgroundBlur_1313_473" result="effect2_dropShadow_1313_473"/>
<feBlend mode="normal" in="SourceGraphic" in2="effect2_dropShadow_1313_473" result="shape"/>
</filter>
<linearGradient id="paint0_linear_1313_473" x1="45.3828" y1="13" x2="45.3828" y2="77.7608" gradientUnits="userSpaceOnUse">
<stop stop-color="#FFB37F"/>
<stop offset="1" stop-color="#FF7B0D"/>
</linearGradient>
<linearGradient id="paint1_linear_1313_473" x1="24.0454" y1="23.7988" x2="75.8098" y2="82.9847" gradientUnits="userSpaceOnUse">
<stop stop-color="white" stop-opacity="0.4"/>
<stop offset="1" stop-color="white" stop-opacity="0"/>
</linearGradient>
<linearGradient id="paint2_linear_1313_473" x1="66.1984" y1="49.4888" x2="41.3361" y2="50.299" gradientUnits="userSpaceOnUse">
<stop stop-color="white"/>
<stop offset="1" stop-color="white" stop-opacity="0.2"/>
</linearGradient>
<linearGradient id="paint3_linear_1313_473" x1="49.0139" y1="48.0579" x2="63.2587" y2="65.6932" gradientUnits="userSpaceOnUse">
<stop stop-color="white" stop-opacity="0.25"/>
<stop offset="1" stop-color="white" stop-opacity="0"/>
</linearGradient>
</defs>
</svg>
