<svg fill="none" height="78" viewBox="0 0 74 78" width="74" xmlns="http://www.w3.org/2000/svg" xmlns:xlink="http://www.w3.org/1999/xlink"><filter id="a" color-interpolation-filters="sRGB" filterUnits="userSpaceOnUse" height="67.6799" width="63.6539" x=".297076" y=".541217"><feFlood flood-opacity="0" result="BackgroundImageFix"/><feBlend in="SourceGraphic" in2="BackgroundImageFix" mode="normal" result="shape"/><feGaussianBlur result="effect1_foregroundBlur_1313_406" stdDeviation="6.68569"/></filter><filter id="b" color-interpolation-filters="sRGB" filterUnits="userSpaceOnUse" height="82.3253" width="76.5687" x="9.23445" y="7.05464"><feFlood flood-opacity="0" result="BackgroundImageFix"/><feGaussianBlur in="BackgroundImageFix" stdDeviation="5.94284"/><feComposite in2="SourceAlpha" operator="in" result="effect1_backgroundBlur_1313_406"/><feBlend in="SourceGraphic" in2="effect1_backgroundBlur_1313_406" mode="normal" result="shape"/></filter><filter id="c" color-interpolation-filters="sRGB" filterUnits="userSpaceOnUse" height="45.5562" width="42.1715" x="26.3078" y="25.3898"><feFlood flood-opacity="0" result="BackgroundImageFix"/><feGaussianBlur in="BackgroundImageFix" stdDeviation="3.71427"/><feComposite in2="SourceAlpha" operator="in" result="effect1_backgroundBlur_1313_406"/><feColorMatrix in="SourceAlpha" result="hardAlpha" type="matrix" values="0 0 0 0 0 0 0 0 0 0 0 0 0 0 0 0 0 0 127 0"/><feOffset dx="2.47618" dy="2.47618"/><feGaussianBlur stdDeviation="2.47618"/><feColorMatrix type="matrix" values="0 0 0 0 0.577356 0 0 0 0 0.359375 0 0 0 0 0.9375 0 0 0 0.5 0"/><feBlend in2="effect1_backgroundBlur_1313_406" mode="normal" result="effect2_dropShadow_1313_406"/><feBlend in="SourceGraphic" in2="effect2_dropShadow_1313_406" mode="normal" result="shape"/></filter><linearGradient id="d" gradientUnits="userSpaceOnUse" x1="26.0209" x2="40.9195" y1="7.70386" y2="63.3059"><stop offset="0" stop-color="#bc94ff"/><stop offset="1" stop-color="#9f66ff"/></linearGradient><linearGradient id="e"><stop offset="0" stop-color="#fff" stop-opacity=".25"/><stop offset="1" stop-color="#fff" stop-opacity="0"/></linearGradient><linearGradient id="f" gradientUnits="userSpaceOnUse" x1="29.8621" x2="67.2046" xlink:href="#e" y1="26.1418" y2="67.7664"/><linearGradient id="g" gradientUnits="userSpaceOnUse" x1="59.1144" x2="28.6817" y1="38.362" y2="39.2449"><stop offset="0" stop-color="#fff"/><stop offset="1" stop-color="#fff" stop-opacity=".2"/></linearGradient><linearGradient id="h" gradientUnits="userSpaceOnUse" x1="38.0844" x2="58.0229" xlink:href="#e" y1="36.3948" y2="58.3666"/><mask id="i" fill="#fff"><path clip-rule="evenodd" d="m36.2411 32.8184v.0287c-1.2405 0-2.245 1.0074-2.245 2.245s1.0045 2.245 2.245 2.245h8.6028c1.2405 0 2.2479-1.0074 2.2479-2.2766 0-1.2348-1.0074-2.2421-2.2479-2.2421zm22.5649 17.526h-22.5649c-1.2405 0-2.245-1.0074-2.245-2.245s1.0045-2.2478 2.245-2.2478h22.5649c1.2376 0 2.2449 1.0102 2.2449 2.2478s-1.0073 2.245-2.2449 2.245zm-.0008 13.1546h-22.5649c-.8634.1151-1.6981-.3166-2.1586-1.0361-.4605-.7484-.4605-1.6982 0-2.4177.4605-.7483 1.2952-1.1513 2.1586-1.0649h22.5649c1.1484.1151 2.0148 1.0937 2.0148 2.2737 0 1.1484-.8664 2.1299-2.0148 2.245z" fill="#fff" fill-rule="evenodd"/></mask><path d="m37.6724 4.58188-23.3001 6.24322c-8.45152 2.2646-12.04633 8.5317-9.7743 17.011l7.6951 28.7185c2.3093 8.6183 8.5262 12.1372 16.9777 9.8726l23.3001-6.2433c8.5877-2.301 12.0733-8.4197 9.7641-17.038l-7.6951-28.7185c-2.2721-8.47929-8.3798-12.1466-16.9675-9.84552z" fill="url(#d)"/><g filter="url(#a)"><rect fill="#8237ff" fill-opacity=".5" height="31.476" rx="6.93331" transform="matrix(-.25881905 -.96592583 .96592583 -.25881905 -27.127046 91.997085)" width="37.1701" x="21.7324" y="56.4062"/></g><g filter="url(#b)"><path d="m59.5812 19.4355h-24.1219c-8.7497 0-13.8441 5.1232-13.8441 13.9016v29.7316c0 8.9223 5.0944 13.9304 13.8441 13.9304h24.1219c8.8907 0 13.8412-5.0081 13.8412-13.9304v-29.7316c0-8.7784-4.9505-13.9016-13.8412-13.9016z" fill="#ba90ff" fill-opacity=".35"/><path d="m59.5812 19.1879h-24.1219c-4.423 0-7.9537 1.2958-10.3787 3.7318-2.4247 2.4359-3.713 5.9807-3.713 10.4174v29.7316c0 4.5077 1.2877 8.0604 3.7134 10.4861s5.9568 3.6919 10.3783 3.6919h24.1219c4.4911 0 8.0224-1.2657 10.4304-3.6925 2.4077-2.4266 3.6584-5.9797 3.6584-10.4855v-29.7316c0-4.4348-1.2512-7.98-3.658-10.4167-2.4073-2.4372-5.9382-3.7325-10.4308-3.7325z" stroke="url(#f)" stroke-linecap="round" stroke-linejoin="round" stroke-width=".495236"/></g><g filter="url(#c)"><path clip-rule="evenodd" d="m36.2411 32.8184v.0287c-1.2405 0-2.245 1.0074-2.245 2.245s1.0045 2.245 2.245 2.245h8.6028c1.2405 0 2.2479-1.0074 2.2479-2.2766 0-1.2348-1.0074-2.2421-2.2479-2.2421zm22.5649 17.526h-22.5649c-1.2405 0-2.245-1.0074-2.245-2.245s1.0045-2.2478 2.245-2.2478h22.5649c1.2376 0 2.2449 1.0102 2.2449 2.2478s-1.0073 2.245-2.2449 2.245zm-.0008 13.1546h-22.5649c-.8634.1151-1.6981-.3166-2.1586-1.0361-.4605-.7484-.4605-1.6982 0-2.4177.4605-.7483 1.2952-1.1513 2.1586-1.0649h22.5649c1.1484.1151 2.0148 1.0937 2.0148 2.2737 0 1.1484-.8664 2.1299-2.0148 2.245z" fill="url(#g)" fill-rule="evenodd"/><path d="m36.2411 32.8471v.1981h.1981v-.1981zm0-.0287v-.1981h-.1981v.1981zm-.0008 30.6806v-.1981h-.0131l-.013.0018zm22.5649 0v.1981h.0099l.0099-.001zm-24.7235-1.0361-.1687.1038.0019.003zm0-2.4177.1669.1068.0018-.003zm2.1586-1.0649-.0197.1971.0099.001h.0098zm22.5649 0 .0198-.1971-.0099-.001h-.0099zm-22.366-26.1332v-.0287h-.3962v.0287zm-2.245 2.245c0-1.1284.9159-2.0469 2.0469-2.0469v-.3962c-1.3501 0-2.4431 1.0963-2.4431 2.4431zm2.0469 2.0469c-1.131 0-2.0469-.9185-2.0469-2.0469h-.3962c0 1.3469 1.093 2.4431 2.4431 2.4431zm8.6028 0h-8.6028v.3962h8.6028zm2.0498-2.0785c0 1.1615-.9203 2.0785-2.0498 2.0785v.3962c1.3516 0 2.446-1.0977 2.446-2.4747zm-2.0498-2.044c1.1315 0 2.0498.919 2.0498 2.044h.3962c0-1.3445-1.0964-2.4402-2.446-2.4402zm-8.6028 0h8.6028v-.3962h-8.6028zm0 17.526h22.5649v-.3962h-22.5649zm-2.4431-2.4431c0 1.3469 1.093 2.4431 2.4431 2.4431v-.3962c-1.131 0-2.0469-.9185-2.0469-2.0469zm2.4431-2.4459c-1.3504 0-2.4431 1.0994-2.4431 2.4459h.3962c0-1.1287.9163-2.0497 2.0469-2.0497zm22.5649 0h-22.5649v.3962h22.5649zm2.443 2.4459c0-1.3467-1.0957-2.4459-2.443-2.4459v.3962c1.1278 0 2.0468.9212 2.0468 2.0497zm-2.443 2.4431c1.347 0 2.443-1.0961 2.443-2.4431h-.3962c0 1.1282-.9186 2.0469-2.0468 2.0469zm-22.5657 13.1546h22.5649v-.3962h-22.5649zm-2.3254-1.1274c.4983.7786 1.4053 1.2518 2.3516 1.1257l-.0523-.3927c-.7807.104-1.5429-.2861-1.9656-.9466zm0-2.6313c-.503.7859-.5008 1.8176-.0019 2.6283l.3374-.2076c-.4221-.686-.4199-1.5539-.0018-2.2071zm2.3452-1.1552c-.9378-.0938-1.8462.3442-2.3471 1.1582l.3374.2076c.4201-.6827 1.1811-1.0505 1.9702-.9716zm22.5451-.001h-22.5649v.3962h22.5649zm2.2129 2.4718c0-1.278-.9398-2.3452-2.1931-2.4708l-.0395.3942c1.0434.1046 1.8364.9946 1.8364 2.0766zm-2.1931 2.4421c1.2519-.1255 2.1931-1.1943 2.1931-2.4421h-.3962c0 1.049-.7916 1.9432-1.8364 2.0479z" fill="url(#h)" mask="url(#i)"/></g></svg>