<svg width="81" height="82" viewBox="0 0 81 82" fill="none" xmlns="http://www.w3.org/2000/svg">
<path fill-rule="evenodd" clip-rule="evenodd" d="M8.00667 18.8692C8.02452 11.2051 14.1657 4.99899 21.7403 4.99899L46.0877 4.999C54.0403 4.999 60.5248 11.5328 60.5248 19.584L60.5248 52.9654C60.5248 52.9973 60.5247 53.0291 60.5245 53.061C60.5071 60.7256 54.3658 66.9321 46.7909 66.9321H22.4435C14.4908 66.9321 8.00635 60.3983 8.00635 52.3471V18.9658C8.00635 18.9336 8.00646 18.9014 8.00667 18.8692Z" fill="url(#paint0_linear_1313_448)"/>
<g opacity="0.5" filter="url(#filter0_f_1313_448)">
<rect x="17.9312" y="49.5279" width="32.1519" height="27.4938" rx="4.09346" transform="rotate(-90 17.9312 49.5279)" fill="#8237FF" fill-opacity="0.5"/>
</g>
<g filter="url(#filter1_b_1313_448)">
<path d="M33.2806 19.0673L55.9929 19.0673L72.004 36.3306V67.0956C72.004 74.7752 65.856 80.9993 58.2704 80.9993H33.923C25.9703 80.9993 19.4858 74.4655 19.4858 66.4143L19.4858 33.0329C19.4858 25.3534 25.6644 19.0673 33.2806 19.0673Z" fill="#BA90FF" fill-opacity="0.35"/>
<path d="M56.2931 18.7889C56.2156 18.7054 56.1068 18.6579 55.9929 18.6579L33.2806 18.6579C25.433 18.6579 19.0765 25.1327 19.0765 33.0329L19.0765 66.4143C19.0765 74.6879 25.7406 81.4087 33.923 81.4087H58.2704C66.0868 81.4087 72.4133 74.9965 72.4133 67.0956V36.3306C72.4133 36.2273 72.3743 36.1279 72.3041 36.0522L56.2931 18.7889Z" stroke="url(#paint1_linear_1313_448)" stroke-width="0.818693" stroke-linecap="round" stroke-linejoin="round"/>
</g>
<mask id="path-5-inside-1_1313_448" fill="white">
<path fill-rule="evenodd" clip-rule="evenodd" d="M45.5143 43.3616H35.1759C33.9218 43.3616 32.8818 44.4145 32.8818 45.6841C32.8818 46.9537 33.9218 47.9756 35.1759 47.9756H45.5143C46.7684 47.9756 47.8084 46.9537 47.8084 45.6841C47.8084 44.4145 46.7684 43.3616 45.5143 43.3616ZM35.1759 63.457H51.8153C53.0694 63.457 54.1093 62.4042 54.1093 61.1346C54.1093 59.865 53.0694 58.8431 51.8153 58.8431H35.1759C33.9218 58.8431 32.8818 59.865 32.8818 61.1346C32.8818 62.4042 33.9218 63.457 35.1759 63.457Z"/>
</mask>
<path fill-rule="evenodd" clip-rule="evenodd" d="M45.5143 43.3616H35.1759C33.9218 43.3616 32.8818 44.4145 32.8818 45.6841C32.8818 46.9537 33.9218 47.9756 35.1759 47.9756H45.5143C46.7684 47.9756 47.8084 46.9537 47.8084 45.6841C47.8084 44.4145 46.7684 43.3616 45.5143 43.3616ZM35.1759 63.457H51.8153C53.0694 63.457 54.1093 62.4042 54.1093 61.1346C54.1093 59.865 53.0694 58.8431 51.8153 58.8431H35.1759C33.9218 58.8431 32.8818 59.865 32.8818 61.1346C32.8818 62.4042 33.9218 63.457 35.1759 63.457Z" fill="url(#paint2_linear_1313_448)"/>
<path d="M35.1759 43.6891H45.5143V43.0342H35.1759V43.6891ZM33.2093 45.6841C33.2093 44.5915 34.1064 43.6891 35.1759 43.6891V43.0342C33.7371 43.0342 32.5544 44.2374 32.5544 45.6841H33.2093ZM35.1759 47.6481C34.1007 47.6481 33.2093 46.7709 33.2093 45.6841H32.5544C32.5544 47.1365 33.7429 48.3031 35.1759 48.3031V47.6481ZM45.5143 47.6481H35.1759V48.3031H45.5143V47.6481ZM47.4809 45.6841C47.4809 46.7709 46.5895 47.6481 45.5143 47.6481V48.3031C46.9473 48.3031 48.1358 47.1365 48.1358 45.6841H47.4809ZM45.5143 43.6891C46.5838 43.6891 47.4809 44.5915 47.4809 45.6841H48.1358C48.1358 44.2374 46.9531 43.0342 45.5143 43.0342V43.6891ZM51.8153 63.1296H35.1759V63.7845H51.8153V63.1296ZM53.7818 61.1346C53.7818 62.2271 52.8847 63.1296 51.8153 63.1296V63.7845C53.254 63.7845 54.4368 62.5812 54.4368 61.1346H53.7818ZM51.8153 59.1706C52.8904 59.1706 53.7818 60.0478 53.7818 61.1346H54.4368C54.4368 59.6822 53.2483 58.5156 51.8153 58.5156V59.1706ZM35.1759 59.1706H51.8153V58.5156H35.1759V59.1706ZM33.2093 61.1346C33.2093 60.0478 34.1007 59.1706 35.1759 59.1706V58.5156C33.7429 58.5156 32.5544 59.6822 32.5544 61.1346H33.2093ZM35.1759 63.1296C34.1064 63.1296 33.2093 62.2271 33.2093 61.1346H32.5544C32.5544 62.5812 33.7372 63.7845 35.1759 63.7845V63.1296Z" fill="url(#paint3_linear_1313_448)" mask="url(#path-5-inside-1_1313_448)"/>
<g filter="url(#filter2_bd_1313_448)">
<mask id="path-7-inside-2_1313_448" fill="white">
<path d="M58.8237 38.8035C60.9557 38.8252 63.9196 38.8345 66.4338 38.8252C67.7215 38.8221 68.3761 37.2645 67.483 36.3262C64.253 32.9261 58.475 26.8413 55.1686 23.3607C54.254 22.3977 52.6543 23.0604 52.6543 24.395V32.5576C52.6543 35.9825 55.4408 38.8035 58.8237 38.8035Z"/>
</mask>
<path d="M58.8237 38.8035C60.9557 38.8252 63.9196 38.8345 66.4338 38.8252C67.7215 38.8221 68.3761 37.2645 67.483 36.3262C64.253 32.9261 58.475 26.8413 55.1686 23.3607C54.254 22.3977 52.6543 23.0604 52.6543 24.395V32.5576C52.6543 35.9825 55.4408 38.8035 58.8237 38.8035Z" fill="url(#paint4_linear_1313_448)"/>
<path d="M66.4338 38.8252L66.433 38.4977L66.4326 38.4977L66.4338 38.8252ZM67.483 36.3262L67.2455 36.5518L67.2458 36.552L67.483 36.3262ZM55.1686 23.3607L54.9311 23.5862L54.9311 23.5863L55.1686 23.3607ZM58.8204 39.131C60.954 39.1526 63.9194 39.1619 66.435 39.1526L66.4326 38.4977C63.9197 38.507 60.9573 38.4977 58.8271 38.476L58.8204 39.131ZM66.4346 39.1526C68.0167 39.1488 68.8068 37.242 67.7202 36.1004L67.2458 36.552C67.9454 37.287 67.4264 38.4953 66.433 38.4977L66.4346 39.1526ZM67.7204 36.1007C64.488 32.6981 58.7149 26.6183 55.406 23.1352L54.9311 23.5863C58.2352 27.0643 64.0179 33.1542 67.2455 36.5518L67.7204 36.1007ZM55.406 23.1352C54.2785 21.9479 52.3268 22.778 52.3268 24.395H52.9818C52.9818 23.3427 54.2295 22.8475 54.9311 23.5862L55.406 23.1352ZM52.3268 24.395V32.5576H52.9818V24.395H52.3268ZM52.3268 32.5576C52.3268 36.1595 55.2561 39.131 58.8237 39.131V38.476C55.6254 38.476 52.9818 35.8054 52.9818 32.5576H52.3268Z" fill="url(#paint5_linear_1313_448)" mask="url(#path-7-inside-2_1313_448)"/>
</g>
<defs>
<filter id="filter0_f_1313_448" x="0.738609" y="0.183525" width="61.8787" height="66.5369" filterUnits="userSpaceOnUse" color-interpolation-filters="sRGB">
<feFlood flood-opacity="0" result="BackgroundImageFix"/>
<feBlend mode="normal" in="SourceGraphic" in2="BackgroundImageFix" result="shape"/>
<feGaussianBlur stdDeviation="8.59627" result="effect1_foregroundBlur_1313_448"/>
</filter>
<filter id="filter1_b_1313_448" x="-0.981628" y="-1.40005" width="93.453" height="102.867" filterUnits="userSpaceOnUse" color-interpolation-filters="sRGB">
<feFlood flood-opacity="0" result="BackgroundImageFix"/>
<feGaussianBlur in="BackgroundImageFix" stdDeviation="9.82431"/>
<feComposite in2="SourceAlpha" operator="in" result="effect1_backgroundBlur_1313_448"/>
<feBlend mode="normal" in="SourceGraphic" in2="effect1_backgroundBlur_1313_448" result="shape"/>
</filter>
<filter id="filter2_bd_1313_448" x="40.3739" y="10.6238" width="39.8015" height="40.4854" filterUnits="userSpaceOnUse" color-interpolation-filters="sRGB">
<feFlood flood-opacity="0" result="BackgroundImageFix"/>
<feGaussianBlur in="BackgroundImageFix" stdDeviation="6.14019"/>
<feComposite in2="SourceAlpha" operator="in" result="effect1_backgroundBlur_1313_448"/>
<feColorMatrix in="SourceAlpha" type="matrix" values="0 0 0 0 0 0 0 0 0 0 0 0 0 0 0 0 0 0 127 0" result="hardAlpha"/>
<feOffset dx="4.09346" dy="4.09346"/>
<feGaussianBlur stdDeviation="4.09346"/>
<feColorMatrix type="matrix" values="0 0 0 0 0.577356 0 0 0 0 0.359375 0 0 0 0 0.9375 0 0 0 0.25 0"/>
<feBlend mode="normal" in2="effect1_backgroundBlur_1313_448" result="effect2_dropShadow_1313_448"/>
<feBlend mode="normal" in="SourceGraphic" in2="effect2_dropShadow_1313_448" result="shape"/>
</filter>
<linearGradient id="paint0_linear_1313_448" x1="45.7018" y1="4.99899" x2="45.7018" y2="66.9321" gradientUnits="userSpaceOnUse">
<stop stop-color="#BC94FF"/>
<stop offset="1" stop-color="#9F66FF"/>
</linearGradient>
<linearGradient id="paint1_linear_1313_448" x1="27.8459" y1="26.2824" x2="68.2108" y2="68.6762" gradientUnits="userSpaceOnUse">
<stop stop-color="white" stop-opacity="0.25"/>
<stop offset="1" stop-color="white" stop-opacity="0"/>
</linearGradient>
<linearGradient id="paint2_linear_1313_448" x1="52.6043" y1="46.9905" x2="28.9618" y2="47.8047" gradientUnits="userSpaceOnUse">
<stop stop-color="white"/>
<stop offset="1" stop-color="white" stop-opacity="0.2"/>
</linearGradient>
<linearGradient id="paint3_linear_1313_448" x1="36.2609" y1="45.7028" x2="48.9144" y2="62.2573" gradientUnits="userSpaceOnUse">
<stop stop-color="white" stop-opacity="0.25"/>
<stop offset="1" stop-color="white" stop-opacity="0"/>
</linearGradient>
<linearGradient id="paint4_linear_1313_448" x1="66.8144" y1="25.7798" x2="49.8363" y2="26.3096" gradientUnits="userSpaceOnUse">
<stop stop-color="white"/>
<stop offset="1" stop-color="white" stop-opacity="0.2"/>
</linearGradient>
<linearGradient id="paint5_linear_1313_448" x1="55.0804" y1="24.7594" x2="65.3235" y2="36.9008" gradientUnits="userSpaceOnUse">
<stop stop-color="white" stop-opacity="0.25"/>
<stop offset="1" stop-color="white" stop-opacity="0"/>
</linearGradient>
</defs>
</svg>
