<svg xmlns="http://www.w3.org/2000/svg" width="108" height="102" viewBox="0 0 108 102" fill="none">
    <path
        d="M20.6125 14.0076L51.5155 5.72719C62.7771 2.70967 70.9348 7.63229 74.0713 19.3381L82.6703 51.4298C85.8068 63.1357 81.2034 71.4776 69.9419 74.4951L39.0388 82.7756C27.7772 85.7931 19.649 80.8626 16.5124 69.1568L7.91348 37.0651C4.77691 25.3592 9.35095 17.0252 20.6125 14.0076Z"
        fill="url(#paint0_linear_1360_167)" />
    <path
        d="M29.3026 25.8578L50.2911 20.234C57.9395 18.1846 63.3847 21.1721 65.3467 28.4943L70.7255 48.5684C72.6875 55.8907 69.4656 61.2005 61.8171 63.2499L40.8287 68.8737C33.1802 70.9231 27.7551 67.9303 25.7931 60.608L20.4142 40.5339C18.4522 33.2117 21.6541 27.9072 29.3026 25.8578Z"
        fill="#0062FF" fill-opacity="0.5" />
    <path
        d="M78.6701 21.1562L47.0922 21.1562C34.7451 21.1562 26.4409 29.8247 26.4409 42.7181L26.4409 72.4749C26.4409 85.3319 34.7451 94.0004 47.0922 94.0004L78.6701 94.0004C91.0172 94.0004 99.285 85.3319 99.285 72.4749L99.285 42.7181C99.285 29.8247 91.0172 21.1562 78.6701 21.1562Z"
        fill="#3EA0FE" fill-opacity="0.35" />
    <mask id="mask0_1360_167" style="mask-type:luminance" maskUnits="userSpaceOnUse" x="25" y="20"
        width="76" height="76">
        <path d="M25.4409 20.1562L100.441 20.1562L100.441 95.1562L25.4409 95.1562L25.4409 20.1562Z"
            fill="white" />
        <path
            d="M78.6701 21.1562L47.0922 21.1562C34.7451 21.1562 26.4409 29.8247 26.4409 42.7181L26.4409 72.4749C26.4409 85.3319 34.7451 94.0004 47.0922 94.0004L78.6701 94.0004C91.0172 94.0004 99.285 85.3319 99.285 72.4749L99.285 42.7181C99.285 29.8247 91.0172 21.1562 78.6701 21.1562Z"
            fill="black" />
    </mask>
    <g mask="url(#mask0_1360_167)">
        <path
            d="M78.6701 22.1562C79.2224 22.1562 79.6701 21.7085 79.6701 21.1562C79.6701 20.604 79.2224 20.1562 78.6701 20.1562L78.6701 22.1562ZM78.6701 20.1562C78.1179 20.1562 77.6701 20.604 77.6701 21.1562C77.6701 21.7085 78.1179 22.1562 78.6701 22.1562L78.6701 20.1562ZM78.6701 20.1562L47.0922 20.1562L47.0922 22.1562L78.6701 22.1562L78.6701 20.1562ZM47.0922 20.1562C40.6759 20.1562 35.242 22.4141 31.4142 26.4104C27.59 30.403 25.4409 36.0546 25.4409 42.7181L27.4409 42.7181C27.4409 36.4882 29.4439 31.3589 32.8586 27.7939C36.2697 24.2326 41.1615 22.1562 47.0922 22.1562L47.0922 20.1562ZM25.4409 42.7181L25.4409 72.4749L27.4409 72.4749L27.4409 42.7181L25.4409 42.7181ZM25.4409 72.4749C25.4409 79.1209 27.5905 84.7635 31.4146 88.7512C35.2423 92.7426 40.6759 95.0004 47.0922 95.0004L47.0922 93.0004C41.1614 93.0004 36.2694 90.924 32.8582 87.3669C29.4434 83.8061 27.4409 78.686 27.4409 72.4749L25.4409 72.4749ZM47.0922 95.0004L78.6701 95.0004L78.6701 93.0004L47.0922 93.0004L47.0922 95.0004ZM78.6701 95.0004C85.0866 95.0004 90.5116 92.7424 94.3304 88.7503C98.1453 84.7621 100.285 79.1197 100.285 72.4749L98.285 72.4749C98.285 78.6872 96.2908 83.8075 92.8851 87.3678C89.4832 90.9241 84.6008 93.0004 78.6701 93.0004L78.6701 95.0004ZM100.285 72.4749L100.285 42.7181L98.285 42.7181L98.285 72.4749L100.285 72.4749ZM100.285 42.7181C100.285 36.0559 98.1458 30.4044 94.3308 26.4113C90.5119 22.4143 85.0867 20.1562 78.6701 20.1562L78.6701 22.1562C84.6007 22.1562 89.4829 24.2324 92.8847 27.793C96.2904 31.3575 98.285 36.487 98.285 42.7181L100.285 42.7181Z"
            fill="url(#paint1_linear_1360_167)" />
    </g>
    <path fill-rule="evenodd" clip-rule="evenodd"
        d="M41.0704 44.9259C41.0704 49.9663 45.1671 54.0686 50.2089 54.0686C55.2471 54.0686 59.3474 49.9663 59.3474 44.9259C59.3474 39.8855 55.2471 35.7832 50.2089 35.7832C45.1671 35.7832 41.0704 39.8855 41.0704 44.9259ZM90.8926 78.4791C92.2018 75.3693 92.838 71.5952 91.6134 68.4552C91.2052 67.4136 90.5947 66.4436 89.7379 65.5907C87.4909 63.3602 85.3911 61.2769 82.8941 59.7371C78.9739 57.2915 75.9474 60.7259 75.131 61.8242C74.4797 62.7018 73.904 63.6544 73.3205 64.6199C73.1989 64.8211 73.0769 65.0229 72.9539 65.2246L72.9249 65.2727C71.1886 68.1487 69.1947 71.4512 65.7571 73.3766C60.7337 76.1581 56.9202 73.5955 54.1768 71.7311C53.1471 71.0367 52.1468 70.38 51.1502 69.9422C48.6937 68.8817 46.4835 70.0894 43.2032 74.256C41.4821 76.4336 39.7758 78.5924 38.0474 80.7436C37.014 82.0305 37.2604 84.0157 38.6542 84.8762C40.879 86.2462 43.593 86.9821 46.66 86.9821L77.4809 86.9821C79.2203 86.9821 80.9634 86.7444 82.6256 86.2009C86.3693 84.9781 89.3407 82.1777 90.8926 78.4791Z"
        fill="url(#paint2_linear_1360_167)" />
    <mask id="mask1_1360_167" style="mask-type:luminance" maskUnits="userSpaceOnUse" x="37" y="35"
        width="56" height="52">
        <path fill-rule="evenodd" clip-rule="evenodd"
            d="M41.0704 44.9259C41.0704 49.9663 45.1671 54.0686 50.2089 54.0686C55.2471 54.0686 59.3474 49.9663 59.3474 44.9259C59.3474 39.8855 55.2471 35.7832 50.2089 35.7832C45.1671 35.7832 41.0704 39.8855 41.0704 44.9259ZM90.8926 78.4791C92.2018 75.3693 92.838 71.5952 91.6134 68.4552C91.2052 67.4136 90.5947 66.4436 89.7379 65.5907C87.4909 63.3602 85.3911 61.2769 82.8941 59.7371C78.9739 57.2915 75.9474 60.7259 75.131 61.8242C74.4797 62.7018 73.904 63.6544 73.3205 64.6199C73.1989 64.8211 73.0769 65.0229 72.9539 65.2246L72.9249 65.2727C71.1886 68.1487 69.1947 71.4512 65.7571 73.3766C60.7337 76.1581 56.9202 73.5955 54.1768 71.7311C53.1471 71.0367 52.1468 70.38 51.1502 69.9422C48.6937 68.8817 46.4835 70.0894 43.2032 74.256C41.4821 76.4336 39.7758 78.5924 38.0474 80.7436C37.014 82.0305 37.2604 84.0157 38.6542 84.8762C40.879 86.2462 43.593 86.9821 46.66 86.9821L77.4809 86.9821C79.2203 86.9821 80.9634 86.7444 82.6256 86.2009C86.3693 84.9781 89.3407 82.1777 90.8926 78.4791Z"
            fill="white" />
    </mask>
    <g mask="url(#mask1_1360_167)">
        <path
            d="M82.8941 59.7371L82.7882 59.9068L82.7891 59.9074L82.8941 59.7371ZM51.1502 69.9422L51.2306 69.7591L51.2295 69.7586L51.1502 69.9422ZM50.2089 53.8686C45.2777 53.8686 41.2704 49.856 41.2704 44.9259L40.8704 44.9259C40.8704 50.0766 45.0565 54.2686 50.2089 54.2686L50.2089 53.8686ZM59.1474 44.9259C59.1474 49.8559 55.1365 53.8686 50.2089 53.8686L50.2089 54.2686C55.3576 54.2686 59.5474 50.0767 59.5474 44.9259L59.1474 44.9259ZM50.2089 35.9832C55.1365 35.9832 59.1474 39.9958 59.1474 44.9259L59.5474 44.9259C59.5474 39.7751 55.3576 35.5832 50.2089 35.5832L50.2089 35.9832ZM41.2704 44.9259C41.2704 39.9958 45.2777 35.9832 50.2089 35.9832L50.2089 35.5832C45.0565 35.5832 40.8704 39.7751 40.8704 44.9259L41.2704 44.9259ZM91.427 68.5279C92.6248 71.5992 92.0077 75.3148 90.7083 78.4015L91.0769 78.5567C92.3958 75.4238 93.0511 71.5913 91.7997 68.3825L91.427 68.5279ZM89.5968 65.7324C90.433 66.5648 91.0283 67.5107 91.427 68.5279L91.7997 68.3825C91.3819 67.3165 90.7565 66.3225 89.879 65.449L89.5968 65.7324ZM82.7891 59.9074C85.2631 61.433 87.3467 63.4988 89.5968 65.7324L89.879 65.449C87.6352 63.2216 85.5191 61.1209 82.9991 59.5669L82.7891 59.9074ZM75.2915 61.9435C75.6922 61.4044 76.6309 60.2995 77.9397 59.6297C79.2362 58.9663 80.897 58.727 82.7882 59.9068L83 59.5674C80.971 58.3017 79.1584 58.5568 77.7575 59.2737C76.3689 59.9843 75.3861 61.1457 74.9705 61.7049L75.2915 61.9435ZM73.4916 64.7234C74.0761 63.7563 74.6468 62.8122 75.2915 61.9435L74.9705 61.7049C74.3126 62.5915 73.7319 63.5525 73.1493 64.5165L73.4916 64.7234ZM73.1247 65.3287C73.2479 65.1266 73.3701 64.9245 73.4916 64.7234L73.1493 64.5165C73.0277 64.7177 72.9059 64.9191 72.7832 65.1205L73.1247 65.3287ZM73.0961 65.3761L73.1247 65.3287L72.7832 65.1205L72.7537 65.1693L73.0961 65.3761ZM65.854 73.5516C69.3448 71.5965 71.3639 68.2453 73.0961 65.3761L72.7537 65.1693C71.0133 68.052 69.0439 71.3065 65.6594 73.2021L65.854 73.5516ZM54.0643 71.8965C55.433 72.8266 57.0982 73.9529 59.0592 74.489C61.031 75.028 63.2942 74.9689 65.854 73.5516L65.6594 73.2021C63.1958 74.5663 61.0414 74.6162 59.1647 74.1031C57.2772 73.5872 55.664 72.5 54.2892 71.5657L54.0643 71.8965ZM51.0698 70.1253C52.0475 70.5548 53.033 71.201 54.0643 71.8965L54.2892 71.5657C53.2611 70.8724 52.2461 70.2052 51.2306 69.7591L51.0698 70.1253ZM43.3601 74.38C44.9966 72.3014 46.3488 70.9846 47.5811 70.3146C48.7976 69.6533 49.8999 69.6203 51.0709 70.1258L51.2295 69.7586C49.944 69.2036 48.7129 69.2441 47.3901 69.9632C46.0832 70.6737 44.6899 72.0443 43.0461 74.1322L43.3601 74.38ZM38.2033 80.8689C39.9323 78.7169 41.6391 76.5575 43.3601 74.38L43.0461 74.1322C41.325 76.3099 39.6193 78.4678 37.8915 80.6183L38.2033 80.8689ZM38.7592 84.706C37.4786 83.9154 37.2371 82.0723 38.2033 80.8689L37.8915 80.6183C36.7911 81.9888 37.0422 84.1161 38.5491 85.0464L38.7592 84.706ZM46.66 86.7821C43.6252 86.7821 40.9487 86.0542 38.7592 84.706L38.5491 85.0464C40.8094 86.4382 43.5608 87.1821 46.66 87.1821L46.66 86.7821ZM77.4809 86.7821L46.66 86.7821L46.66 87.1821L77.4809 87.1821L77.4809 86.7821ZM82.5635 86.0108C80.9241 86.5468 79.2023 86.7821 77.4809 86.7821L77.4809 87.1821C79.2383 87.1821 81.0028 86.9419 82.6878 86.391L82.5635 86.0108ZM90.7083 78.4015C89.1779 82.0486 86.2498 84.8067 82.5635 86.0108L82.6878 86.391C86.4889 85.1495 89.5035 82.3067 91.0769 78.5567L90.7083 78.4015Z"
            fill="url(#paint3_linear_1360_167)" fill-opacity="0.5" />
    </g>
    <defs>
        <linearGradient id="paint0_linear_1360_167" x1="7.7318" y1="17.459" x2="91.4724"
            y2="45.6258" gradientUnits="userSpaceOnUse">
            <stop stop-color="#39AFFD" />
            <stop offset="1" stop-color="#3A76FF" />
        </linearGradient>
        <linearGradient id="paint1_linear_1360_167" x1="38.0365" y1="29.6427" x2="84.5033"
            y2="87.1929" gradientUnits="userSpaceOnUse">
            <stop stop-color="white" stop-opacity="0.25" />
            <stop offset="1" stop-color="white" stop-opacity="0.06" />
        </linearGradient>
        <linearGradient id="paint2_linear_1360_167" x1="88.3794" y1="45.0287" x2="27.2845"
            y2="47.163" gradientUnits="userSpaceOnUse">
            <stop stop-color="white" />
            <stop offset="1" stop-color="white" stop-opacity="0.2" />
        </linearGradient>
        <linearGradient id="paint3_linear_1360_167" x1="43.3218" y1="52.958" x2="89.902"
            y2="53.2335" gradientUnits="userSpaceOnUse">
            <stop stop-color="white" />
            <stop offset="1" stop-color="white" stop-opacity="0" />
        </linearGradient>
    </defs>
</svg>