<svg width="77" height="78" viewBox="0 0 77 78" fill="none" xmlns="http://www.w3.org/2000/svg">
<g filter="url(#filter0_b_1313_440)">
<path d="M64.0409 33.9386C64.0409 51.0259 50.3769 64.8771 33.5205 64.8771C16.664 64.8771 3 51.0259 3 33.9386C3 16.8543 16.664 3 33.5205 3C50.3769 3 64.0409 16.8543 64.0409 33.9386Z" fill="url(#paint0_linear_1313_440)"/>
</g>
<g opacity="0.5" filter="url(#filter1_f_1313_440)">
<path d="M53.0798 33.9092C53.0798 44.7893 44.3794 53.6089 33.6463 53.6089C22.9132 53.6089 14.2129 44.7893 14.2129 33.9092C14.2129 23.0311 22.9132 14.2096 33.6463 14.2096C44.3794 14.2096 53.0798 23.0311 53.0798 33.9092Z" fill="#F41E59"/>
</g>
<g filter="url(#filter2_b_1313_440)">
<path d="M75.9994 46.0609C75.9994 63.1483 62.3354 76.9995 45.479 76.9995C28.6225 76.9995 14.9585 63.1483 14.9585 46.0609C14.9585 28.9766 28.6225 15.1223 45.479 15.1223C62.3354 15.1223 75.9994 28.9766 75.9994 46.0609Z" fill="#FF749F" fill-opacity="0.35"/>
<path d="M45.479 77.4022C62.563 77.4022 76.4022 63.3655 76.4022 46.0609C76.4022 28.7594 62.563 14.7196 45.479 14.7196C28.3949 14.7196 14.5558 28.7594 14.5558 46.0609C14.5558 63.3655 28.3949 77.4022 45.479 77.4022Z" stroke="url(#paint1_linear_1313_440)" stroke-width="0.805461" stroke-linecap="round" stroke-linejoin="round"/>
</g>
<g filter="url(#filter3_bd_1313_440)">
<path d="M57.6866 46.076C57.6866 46.8579 57.4438 47.6429 56.9583 48.2714C56.8672 48.3947 56.4424 48.903 56.1086 49.2338L55.9265 49.4142C53.3773 52.154 47.0348 56.2741 43.818 57.5943C43.818 57.6244 41.9061 58.4093 40.9957 58.4364H40.8743C39.4784 58.4364 38.1734 57.6575 37.5058 56.3944C37.1416 55.6997 36.8078 53.6847 36.7775 53.6577C36.5043 51.8502 36.3223 49.0834 36.3223 46.0459C36.3223 42.8611 36.5043 39.971 36.8382 38.1966C36.8382 38.1666 37.172 36.5426 37.3844 36.0012C37.7182 35.2223 38.3252 34.5577 39.0838 34.1367C39.6908 33.8389 40.3281 33.6855 40.9957 33.6855C41.6937 33.7186 42.9986 34.1667 43.5145 34.3772C46.9134 35.7005 53.4077 40.0311 55.8961 42.6777C56.321 43.0987 56.7762 43.613 56.8976 43.7302C57.4135 44.3919 57.6866 45.2039 57.6866 46.076Z" fill="url(#paint2_linear_1313_440)"/>
<path d="M56.8308 48.1729L56.8308 48.1729L56.8287 48.1757C56.7427 48.2922 56.3233 48.7942 55.9952 49.1194L55.8131 49.2998L55.813 49.2997L55.8085 49.3045C54.547 50.6603 52.3367 52.3669 50.0332 53.9025C47.7305 55.4377 45.3508 56.7911 43.7568 57.4453L43.6569 57.4863V57.4961C43.6059 57.5189 43.5337 57.5494 43.4446 57.5854C43.2537 57.6627 42.989 57.7634 42.6959 57.8642C42.1035 58.0677 41.421 58.262 40.9933 58.2753H40.8743C39.5383 58.2753 38.2882 57.5297 37.6483 56.3193C37.478 55.9942 37.3075 55.3392 37.1737 54.7405C37.1077 54.4453 37.052 54.1706 37.0107 53.967L37.0106 53.9663C36.9901 53.8653 36.973 53.7807 36.96 53.7205C36.9536 53.6906 36.9477 53.6648 36.9427 53.6453C36.9403 53.6359 36.9374 53.6252 36.9341 53.6153C36.934 53.615 36.934 53.6148 36.9339 53.6146C36.664 51.8173 36.4834 49.0679 36.4834 46.0459C36.4834 42.8641 36.6655 39.9859 36.9965 38.2264L36.9993 38.2117V38.2086L37.0004 38.2019C37.0027 38.1893 37.0063 38.1709 37.011 38.1471C37.0204 38.0995 37.0341 38.0322 37.0513 37.9501C37.0857 37.7861 37.1339 37.5644 37.1886 37.3268C37.2989 36.8482 37.4325 36.3208 37.5335 36.0624C37.8525 35.3195 38.4325 34.6834 39.1585 34.2795C39.742 33.9939 40.3526 33.8472 40.9919 33.8466C41.3196 33.8629 41.8022 33.9776 42.2774 34.1192C42.7506 34.2603 43.2009 34.4232 43.4537 34.5264L43.4536 34.5264L43.4561 34.5274C45.1391 35.1826 47.6008 36.5883 49.9571 38.1651C52.3137 39.742 54.5472 41.4782 55.7788 42.788L55.7787 42.7881L55.7827 42.7921C55.9927 43.0002 56.2109 43.232 56.3927 43.4275C56.4356 43.4737 56.4768 43.5182 56.5156 43.5601C56.6314 43.6852 56.7256 43.7868 56.7771 43.8377C57.2658 44.4684 57.5255 45.242 57.5255 46.076C57.5255 46.8255 57.2927 47.575 56.8308 48.1729ZM36.9977 38.218C36.9977 38.2181 36.9978 38.2173 36.9981 38.2153L36.9977 38.218Z" stroke="url(#paint3_linear_1313_440)" stroke-width="0.322184"/>
</g>
<defs>
<filter id="filter0_b_1313_440" x="-7.47099" y="-7.47099" width="81.983" height="82.8191" filterUnits="userSpaceOnUse" color-interpolation-filters="sRGB">
<feFlood flood-opacity="0" result="BackgroundImageFix"/>
<feGaussianBlur in="BackgroundImageFix" stdDeviation="5.2355"/>
<feComposite in2="SourceAlpha" operator="in" result="effect1_backgroundBlur_1313_440"/>
<feBlend mode="normal" in="SourceGraphic" in2="effect1_backgroundBlur_1313_440" result="shape"/>
</filter>
<filter id="filter1_f_1313_440" x="0.520057" y="0.51673" width="66.2524" height="66.785" filterUnits="userSpaceOnUse" color-interpolation-filters="sRGB">
<feFlood flood-opacity="0" result="BackgroundImageFix"/>
<feBlend mode="normal" in="SourceGraphic" in2="BackgroundImageFix" result="shape"/>
<feGaussianBlur stdDeviation="6.84642" result="effect1_foregroundBlur_1313_440"/>
</filter>
<filter id="filter2_b_1313_440" x="-5.17823" y="-5.01419" width="101.314" height="102.15" filterUnits="userSpaceOnUse" color-interpolation-filters="sRGB">
<feFlood flood-opacity="0" result="BackgroundImageFix"/>
<feGaussianBlur in="BackgroundImageFix" stdDeviation="9.66553"/>
<feComposite in2="SourceAlpha" operator="in" result="effect1_backgroundBlur_1313_440"/>
<feBlend mode="normal" in="SourceGraphic" in2="effect1_backgroundBlur_1313_440" result="shape"/>
</filter>
<filter id="filter3_bd_1313_440" x="24.2404" y="21.6036" width="45.5281" height="48.9147" filterUnits="userSpaceOnUse" color-interpolation-filters="sRGB">
<feFlood flood-opacity="0" result="BackgroundImageFix"/>
<feGaussianBlur in="BackgroundImageFix" stdDeviation="6.04096"/>
<feComposite in2="SourceAlpha" operator="in" result="effect1_backgroundBlur_1313_440"/>
<feColorMatrix in="SourceAlpha" type="matrix" values="0 0 0 0 0 0 0 0 0 0 0 0 0 0 0 0 0 0 127 0" result="hardAlpha"/>
<feOffset dx="4.0273" dy="4.0273"/>
<feGaussianBlur stdDeviation="4.0273"/>
<feColorMatrix type="matrix" values="0 0 0 0 1 0 0 0 0 0.321569 0 0 0 0 0.54902 0 0 0 0.5 0"/>
<feBlend mode="normal" in2="effect1_backgroundBlur_1313_440" result="effect2_dropShadow_1313_440"/>
<feBlend mode="normal" in="SourceGraphic" in2="effect2_dropShadow_1313_440" result="shape"/>
</filter>
<linearGradient id="paint0_linear_1313_440" x1="38.0143" y1="38.0821" x2="-15.8985" y2="63.9415" gradientUnits="userSpaceOnUse">
<stop stop-color="#FF759F"/>
<stop offset="1" stop-color="#FF196E"/>
</linearGradient>
<linearGradient id="paint1_linear_1313_440" x1="24.6752" y1="22.3311" x2="64.2561" y2="70.6905" gradientUnits="userSpaceOnUse">
<stop stop-color="white" stop-opacity="0.25"/>
<stop offset="1" stop-color="white" stop-opacity="0"/>
</linearGradient>
<linearGradient id="paint2_linear_1313_440" x1="56.1719" y1="38.1551" x2="32.3676" y2="38.825" gradientUnits="userSpaceOnUse">
<stop stop-color="white"/>
<stop offset="1" stop-color="white" stop-opacity="0.2"/>
</linearGradient>
<linearGradient id="paint3_linear_1313_440" x1="39.7231" y1="36.5691" x2="55.8382" y2="53.7971" gradientUnits="userSpaceOnUse">
<stop stop-color="white" stop-opacity="0.25"/>
<stop offset="1" stop-color="white" stop-opacity="0"/>
</linearGradient>
</defs>
</svg>
