<svg width="87" height="82" viewBox="0 0 87 82" fill="none" xmlns="http://www.w3.org/2000/svg">
<g filter="url(#filter0_b_1313_463)">
<path d="M32.4885 8C18.9708 8 8 18.9038 8 32.3334C8 45.7679 18.9708 56.6668 32.4885 56.6668C46.0306 56.6668 56.977 45.7679 56.977 32.3334C56.977 18.9038 46.0306 8 32.4885 8Z" fill="url(#paint0_linear_1313_463)"/>
</g>
<g opacity="0.5" filter="url(#filter1_f_1313_463)">
<path d="M32.4885 20.4474C25.8851 20.4474 20.5259 25.7739 20.5259 32.3342C20.5259 38.8969 25.8851 44.221 32.4885 44.221C39.1038 44.221 44.451 38.8969 44.451 32.3342C44.451 25.7739 39.1038 20.4474 32.4885 20.4474Z" fill="#FF3D22"/>
</g>
<g filter="url(#filter2_b_1313_463)">
<mask id="path-3-outside-1_1313_463" maskUnits="userSpaceOnUse" x="10.6274" y="25.0245" width="77" height="57" fill="black">
<rect fill="white" x="10.6274" y="25.0245" width="77" height="57"/>
<path fill-rule="evenodd" clip-rule="evenodd" d="M85.7822 52.5127C81.9003 44.2164 76.4947 37.586 70.1459 33.0547C63.797 28.4901 56.5049 26.0245 48.8137 26.0245H48.7774C33.4313 26.0245 19.6089 35.9201 11.8451 52.5127C11.5549 53.1457 11.5549 53.8788 11.8451 54.4785C19.6089 71.0711 33.4313 81 48.7774 81H48.8137C64.1961 81 78.0185 71.0711 85.7822 54.4785C86.0725 53.8788 86.0725 53.1457 85.7822 52.5127Z"/>
</mask>
<path fill-rule="evenodd" clip-rule="evenodd" d="M85.7822 52.5127C81.9003 44.2164 76.4947 37.586 70.1459 33.0547C63.797 28.4901 56.5049 26.0245 48.8137 26.0245H48.7774C33.4313 26.0245 19.6089 35.9201 11.8451 52.5127C11.5549 53.1457 11.5549 53.8788 11.8451 54.4785C19.6089 71.0711 33.4313 81 48.7774 81H48.8137C64.1961 81 78.0185 71.0711 85.7822 54.4785C86.0725 53.8788 86.0725 53.1457 85.7822 52.5127Z" fill="#FFAC95" fill-opacity="0.4"/>
<path d="M84.8765 52.9365C85.1105 53.4367 85.7058 53.6525 86.206 53.4184C86.7063 53.1844 86.922 52.5891 86.688 52.0889L84.8765 52.9365ZM70.1459 33.0547L69.5621 33.8666L69.5649 33.8686L70.1459 33.0547ZM11.8451 52.5127L10.9393 52.0889L10.9361 52.0959L11.8451 52.5127ZM11.8451 54.4785L12.7509 54.0546L12.7453 54.0429L11.8451 54.4785ZM85.7822 54.4785L84.882 54.0428L84.8765 54.0547L85.7822 54.4785ZM86.6912 52.0959C86.4611 51.5939 85.8675 51.3735 85.3655 51.6037C84.8634 51.8338 84.643 52.4274 84.8732 52.9295L86.6912 52.0959ZM86.688 52.0889C82.7425 43.6568 77.2326 36.8841 70.7268 32.2407L69.5649 33.8686C75.7568 38.2879 81.0581 44.776 84.8765 52.9365L86.688 52.0889ZM70.7296 32.2428C64.2206 27.563 56.7263 25.0245 48.8137 25.0245V27.0245C56.2834 27.0245 63.3734 29.4171 69.5621 33.8666L70.7296 32.2428ZM48.8137 25.0245H48.7774V27.0245H48.8137V25.0245ZM48.7774 25.0245C32.9595 25.0245 18.8289 35.2274 10.9394 52.0889L12.7509 52.9365C20.3888 36.6128 33.9031 27.0245 48.7774 27.0245V25.0245ZM10.9361 52.0959C10.528 52.9861 10.5182 54.0321 10.945 54.9141L12.7453 54.0429C12.5916 53.7254 12.5818 53.3054 12.7541 52.9295L10.9361 52.0959ZM10.9394 54.9023C18.8283 71.7625 32.9582 82 48.7774 82V80C33.9043 80 20.3894 70.3797 12.7509 54.0547L10.9394 54.9023ZM48.7774 82H48.8137V80H48.7774V82ZM48.8137 82C64.6686 82 78.7988 71.763 86.688 54.9023L84.8765 54.0547C77.2382 70.3792 63.7235 80 48.8137 80V82ZM86.6824 54.9141C87.1092 54.0321 87.0993 52.9861 86.6912 52.0959L84.8732 52.9295C85.0456 53.3054 85.0357 53.7254 84.8821 54.0429L86.6824 54.9141Z" fill="url(#paint1_linear_1313_463)" mask="url(#path-3-outside-1_1313_463)"/>
</g>
<g filter="url(#filter3_bd_1313_463)">
<path d="M59.6977 53.9841C59.6977 59.9225 54.812 64.7772 48.8358 64.7772C42.8159 64.7772 37.9302 59.9225 37.9302 53.9841C37.9302 53.2472 38.0174 52.5536 38.1483 51.8601H38.3664C43.2085 51.8601 47.1345 48.0457 47.309 43.2776C47.7888 43.1909 48.3123 43.1475 48.8358 43.1475C54.812 43.1475 59.6977 48.0023 59.6977 53.9841Z" fill="url(#paint2_linear_1313_463)"/>
<path d="M59.5977 53.9841C59.5977 59.8667 54.7574 64.6772 48.8358 64.6772C42.8702 64.6772 38.0302 59.8664 38.0302 53.9841C38.0302 53.2839 38.1098 52.6223 38.2314 51.9601H38.3664C43.2348 51.9601 47.1879 48.1463 47.4056 43.3622C47.8573 43.2859 48.3462 43.2475 48.8358 43.2475C54.7571 43.2475 59.5977 48.0579 59.5977 53.9841Z" stroke="url(#paint3_linear_1313_463)" stroke-opacity="0.5" stroke-width="0.2"/>
</g>
<defs>
<filter id="filter0_b_1313_463" x="-5" y="-5" width="74.9771" height="74.6668" filterUnits="userSpaceOnUse" color-interpolation-filters="sRGB">
<feFlood flood-opacity="0" result="BackgroundImageFix"/>
<feGaussianBlur in="BackgroundImageFix" stdDeviation="6.5"/>
<feComposite in2="SourceAlpha" operator="in" result="effect1_backgroundBlur_1313_463"/>
<feBlend mode="normal" in="SourceGraphic" in2="effect1_backgroundBlur_1313_463" result="shape"/>
</filter>
<filter id="filter1_f_1313_463" x="0.525879" y="0.447388" width="63.9253" height="63.7737" filterUnits="userSpaceOnUse" color-interpolation-filters="sRGB">
<feFlood flood-opacity="0" result="BackgroundImageFix"/>
<feBlend mode="normal" in="SourceGraphic" in2="BackgroundImageFix" result="shape"/>
<feGaussianBlur stdDeviation="10" result="effect1_foregroundBlur_1313_463"/>
</filter>
<filter id="filter2_b_1313_463" x="-4.37256" y="10.0245" width="106.373" height="86.9755" filterUnits="userSpaceOnUse" color-interpolation-filters="sRGB">
<feFlood flood-opacity="0" result="BackgroundImageFix"/>
<feGaussianBlur in="BackgroundImageFix" stdDeviation="7.5"/>
<feComposite in2="SourceAlpha" operator="in" result="effect1_backgroundBlur_1313_463"/>
<feBlend mode="normal" in="SourceGraphic" in2="effect1_backgroundBlur_1313_463" result="shape"/>
</filter>
<filter id="filter3_bd_1313_463" x="22.9302" y="28.1475" width="51.7676" height="51.6297" filterUnits="userSpaceOnUse" color-interpolation-filters="sRGB">
<feFlood flood-opacity="0" result="BackgroundImageFix"/>
<feGaussianBlur in="BackgroundImageFix" stdDeviation="7.5"/>
<feComposite in2="SourceAlpha" operator="in" result="effect1_backgroundBlur_1313_463"/>
<feColorMatrix in="SourceAlpha" type="matrix" values="0 0 0 0 0 0 0 0 0 0 0 0 0 0 0 0 0 0 127 0" result="hardAlpha"/>
<feOffset dx="5" dy="5"/>
<feGaussianBlur stdDeviation="5"/>
<feColorMatrix type="matrix" values="0 0 0 0 1 0 0 0 0 0.447059 0 0 0 0 0.368627 0 0 0 0.5 0"/>
<feBlend mode="normal" in2="effect1_backgroundBlur_1313_463" result="effect2_dropShadow_1313_463"/>
<feBlend mode="normal" in="SourceGraphic" in2="effect2_dropShadow_1313_463" result="shape"/>
</filter>
<linearGradient id="paint0_linear_1313_463" x1="36.0942" y1="35.5924" x2="-6.83645" y2="56.5992" gradientUnits="userSpaceOnUse">
<stop stop-color="#FFA78F"/>
<stop offset="1" stop-color="#F23E2C"/>
</linearGradient>
<linearGradient id="paint1_linear_1313_463" x1="23.4663" y1="32.4292" x2="55.0408" y2="85.3325" gradientUnits="userSpaceOnUse">
<stop stop-color="white" stop-opacity="0.25"/>
<stop offset="1" stop-color="white" stop-opacity="0"/>
</linearGradient>
<linearGradient id="paint2_linear_1313_463" x1="58.1544" y1="47.0534" x2="33.9078" y2="47.849" gradientUnits="userSpaceOnUse">
<stop stop-color="white"/>
<stop offset="1" stop-color="white" stop-opacity="0.2"/>
</linearGradient>
<linearGradient id="paint3_linear_1313_463" x1="58.765" y1="54.4199" x2="37.6026" y2="55.3071" gradientUnits="userSpaceOnUse">
<stop stop-color="white"/>
<stop offset="1" stop-color="white" stop-opacity="0"/>
</linearGradient>
</defs>
</svg>
