<svg width="110" height="92" viewBox="0 0 110 92" fill="none" xmlns="http://www.w3.org/2000/svg">
<path d="M53.3839 56.7501C52.9418 57.6612 52.9769 58.7332 53.4751 59.6156L60.5542 71.7397C61.1533 72.7676 61.0947 74.05 60.4055 75.0213C59.7433 76.0097 58.5713 76.5263 57.3945 76.3573L43.4832 74.5221C42.9979 74.4539 42.5043 74.5022 42.0376 74.6573L41.3224 74.9178C41.0878 75.0452 40.8738 75.2127 40.6964 75.4149L31.2373 85.797C30.7651 86.2978 30.1481 86.6391 29.4692 86.7699C27.7991 87.0436 26.214 85.9356 25.8977 84.2727L23.5138 70.4382C23.3241 69.4344 22.659 68.586 21.7301 68.1623L8.83298 62.4014C7.75408 61.9189 7.0537 60.8591 7.03602 59.6792C7.00874 58.5057 7.63335 57.4145 8.66083 56.8459L21.0842 50.1653C22.0443 49.699 22.6993 48.773 22.8209 47.7127L24.2816 33.7625C24.3227 33.4487 24.411 33.1416 24.5498 32.858L24.72 32.5868C24.794 32.4044 24.8951 32.239 25.0198 32.089L25.269 31.8787L25.6503 31.5306L26.7615 31.1258C27.7913 30.8672 28.8814 31.1425 29.6612 31.8625L39.8176 41.5206C40.5544 42.2294 41.5936 42.5292 42.5939 42.3291L56.4045 39.4524C57.5707 39.2069 58.776 39.6344 59.5277 40.556C60.2591 41.4878 60.3842 42.7572 59.8493 43.8157L53.3839 56.7501Z" fill="url(#paint0_linear_1313_496)"/>
<g opacity="0.5" filter="url(#filter0_f_1313_496)">
<path d="M41.2197 49.7343C35.1795 49.7343 30.2773 54.6353 30.2773 60.6714C30.2773 66.7098 35.1795 71.6085 41.2197 71.6085C47.2708 71.6085 52.162 66.7098 52.162 60.6714C52.162 54.6353 47.2708 49.7343 41.2197 49.7343Z" fill="#FF3D22"/>
</g>
<g filter="url(#filter1_b_1313_496)">
<path d="M85.5941 54.7122C84.4797 55.3551 83.7523 56.5071 83.6469 57.7896L82.4453 75.5775C82.3423 77.0848 81.3664 78.3914 79.9493 78.9215C78.5486 79.4889 76.9482 79.1973 75.8315 78.1815L62.5153 66.3436C62.0537 65.9262 61.5003 65.6255 60.8991 65.4561L59.9615 65.2206C59.624 65.1873 59.2796 65.2111 58.949 65.2972L41.603 69.4744C40.7496 69.6645 39.8576 69.5839 39.0507 69.2378C37.0997 68.336 36.2233 66.0422 37.0763 64.0688L44.4334 47.8268C44.9496 46.6365 44.8552 45.2708 44.1808 44.1638L34.7295 28.9214C33.9393 27.6456 33.9586 26.0327 34.7812 24.7796C35.5892 23.5266 37.0238 22.8243 38.5093 22.9584L56.3327 24.7839C57.6745 24.9775 59.0232 24.4706 59.907 23.4425L71.3883 9.81739C71.6552 9.51673 71.967 9.25679 72.3151 9.05742L72.6873 8.89354C72.8952 8.75455 73.1194 8.65277 73.3574 8.58386L73.7693 8.54025L74.4184 8.4459L75.8751 8.81175C77.1422 9.27338 78.0918 10.3392 78.3983 11.6515L82.1898 29.039C82.4591 30.3089 83.3378 31.3642 84.5322 31.8664L101.102 38.679C102.503 39.2514 103.465 40.5594 103.598 42.0636C103.703 43.5642 102.929 44.9877 101.612 45.7195L85.5941 54.7122Z" fill="#FFAC95" fill-opacity="0.4"/>
<path d="M82.9442 75.6111L82.9442 75.6115C82.8279 77.3129 81.7276 78.7873 80.1307 79.3875C78.5527 80.0238 76.753 79.6943 75.497 78.5532C75.4963 78.5526 75.4956 78.5519 75.4949 78.5513L62.183 66.7173L62.1798 66.7145C61.779 66.352 61.2969 66.0887 60.77 65.9392L59.8771 65.7149C59.6069 65.6921 59.3344 65.7135 59.0749 65.781L59.066 65.7834L59.066 65.7833L41.72 69.9605L41.7116 69.9625L41.7116 69.9624C40.7566 70.1752 39.7575 70.085 38.8535 69.6973L38.8407 69.6918L38.8408 69.6917C36.6436 68.6761 35.6567 66.0929 36.6173 63.8705L36.6207 63.8625L36.6208 63.8626L43.9762 47.6244C44.4258 46.5845 44.343 45.3923 43.7546 44.4254C43.7543 44.425 43.754 44.4245 43.7537 44.424L34.3045 29.1849L34.3044 29.1847C33.4126 27.7448 33.4334 25.9231 34.3621 24.507C35.2708 23.0991 36.8838 22.3096 38.5544 22.4604L38.5604 22.461L38.5604 22.461L56.3837 24.2865C56.3906 24.2872 56.3974 24.2881 56.4042 24.2891C57.5756 24.4581 58.7537 24.0159 59.5263 23.1184C59.5268 23.1178 59.5273 23.1172 59.5278 23.1166L71.0059 9.49528L71.0142 9.48544L71.0144 9.48555C71.3143 9.14761 71.6678 8.85203 72.0666 8.62359C72.0819 8.61485 72.0976 8.60692 72.1137 8.59984L72.4478 8.45276C72.6898 8.29651 72.9483 8.18182 73.2185 8.10361C73.2467 8.09543 73.2756 8.08977 73.3049 8.08667L73.7071 8.04408L74.3466 7.95112C74.4112 7.94173 74.477 7.94508 74.5403 7.96098L75.997 8.32684C76.0137 8.33104 76.0302 8.33609 76.0464 8.34199C77.471 8.86103 78.5401 10.06 78.8852 11.5378L78.8869 11.5449L78.8868 11.5449L82.6783 28.9324L82.6789 28.9352C82.9139 30.043 83.6806 30.9652 84.7242 31.4047C84.7248 31.405 84.7254 31.4053 84.7261 31.4055L101.291 38.2161L82.9442 75.6111ZM82.9442 75.6111L84.1453 57.8304C84.1454 57.8293 84.1455 57.8281 84.1456 57.8269C84.2385 56.7097 84.8722 55.707 85.8413 55.1467C85.8422 55.1462 85.8431 55.1457 85.8439 55.1452L101.855 46.1566C101.856 46.1563 101.856 46.156 101.857 46.1557C103.342 45.3296 104.215 43.7229 104.097 42.0287L104.097 42.0287M82.9442 75.6111L104.097 42.0287M104.097 42.0287L104.096 42.0194M104.097 42.0287L104.096 42.0194M104.096 42.0194C103.947 40.3296 102.866 38.8601 101.292 38.2165L104.096 42.0194Z" stroke="url(#paint1_linear_1313_496)" stroke-linecap="round" stroke-linejoin="round"/>
</g>
<defs>
<filter id="filter0_f_1313_496" x="10.2773" y="29.7343" width="61.8848" height="61.8742" filterUnits="userSpaceOnUse" color-interpolation-filters="sRGB">
<feFlood flood-opacity="0" result="BackgroundImageFix"/>
<feBlend mode="normal" in="SourceGraphic" in2="BackgroundImageFix" result="shape"/>
<feGaussianBlur stdDeviation="10" result="effect1_foregroundBlur_1313_496"/>
</filter>
<filter id="filter1_b_1313_496" x="9.15039" y="-16.5541" width="119.458" height="120.762" filterUnits="userSpaceOnUse" color-interpolation-filters="sRGB">
<feFlood flood-opacity="0" result="BackgroundImageFix"/>
<feGaussianBlur in="BackgroundImageFix" stdDeviation="12"/>
<feComposite in2="SourceAlpha" operator="in" result="effect1_backgroundBlur_1313_496"/>
<feBlend mode="normal" in="SourceGraphic" in2="effect1_backgroundBlur_1313_496" result="shape"/>
</filter>
<linearGradient id="paint0_linear_1313_496" x1="10.6703" y1="52.5033" x2="68.6094" y2="106.815" gradientUnits="userSpaceOnUse">
<stop stop-color="#FFA78F"/>
<stop offset="1" stop-color="#F23E2C"/>
</linearGradient>
<linearGradient id="paint1_linear_1313_496" x1="49.883" y1="10.4228" x2="77.7212" y2="74.8367" gradientUnits="userSpaceOnUse">
<stop stop-color="white" stop-opacity="0.25"/>
<stop offset="1" stop-color="white" stop-opacity="0"/>
</linearGradient>
</defs>
</svg>
