<svg width="77" height="73" viewBox="0 0 77 73" fill="none" xmlns="http://www.w3.org/2000/svg">
<path d="M61.8103 12.1847L42.3092 6.98448C35.2357 5.09824 30.0074 8.12184 28.1058 15.1845L21.6654 39.1051C19.7326 46.2836 22.7663 51.411 29.8398 53.2973L49.3409 58.4974C56.5284 60.4141 61.6154 57.4521 63.5481 50.2736L69.9886 26.3531C71.8902 19.2904 68.9978 14.1013 61.8103 12.1847Z" fill="url(#paint0_linear_1313_488)"/>
<g opacity="0.5" filter="url(#filter0_f_1313_488)">
<path d="M56.7152 18.7351L43.4289 15.1921C38.6097 13.907 35.0476 15.967 33.752 20.7789L29.3641 37.0762C28.0473 41.967 30.1142 45.4604 34.9334 46.7455L48.2197 50.2884C53.1166 51.5942 56.5824 49.5762 57.8992 44.6854L62.2872 28.3881C63.5827 23.5763 61.6121 20.0409 56.7152 18.7351Z" fill="#39B93A"/>
</g>
<g filter="url(#filter1_b_1313_488)">
<mask id="path-3-outside-1_1313_488" maskUnits="userSpaceOnUse" x="0" y="15.8344" width="58" height="58" fill="black">
<rect fill="white" y="15.8344" width="58" height="58"/>
<path d="M40.7447 16.8344H16.715C7.31924 16.8344 1 23.3991 1 33.1634V55.6986C1 65.4353 7.31924 72 16.715 72H40.7447C50.1404 72 56.4319 65.4353 56.4319 55.6986V33.1634C56.4319 23.3991 50.1404 16.8344 40.7447 16.8344Z"/>
</mask>
<path d="M40.7447 16.8344H16.715C7.31924 16.8344 1 23.3991 1 33.1634V55.6986C1 65.4353 7.31924 72 16.715 72H40.7447C50.1404 72 56.4319 65.4353 56.4319 55.6986V33.1634C56.4319 23.3991 50.1404 16.8344 40.7447 16.8344Z" fill="#72DC60" fill-opacity="0.35"/>
<path d="M40.7447 17.8344C41.297 17.8344 41.7447 17.3867 41.7447 16.8344C41.7447 16.2821 41.297 15.8344 40.7447 15.8344V17.8344ZM40.7447 15.8344C40.1924 15.8344 39.7447 16.2821 39.7447 16.8344C39.7447 17.3867 40.1924 17.8344 40.7447 17.8344V15.8344ZM40.7447 15.8344H16.715V17.8344H40.7447V15.8344ZM16.715 15.8344C11.7758 15.8344 7.57659 17.5653 4.61358 20.6439C1.65377 23.7191 0 28.0631 0 33.1634H2C2 28.4994 3.50585 24.6789 6.05459 22.0308C8.60013 19.3859 12.2583 17.8344 16.715 17.8344V15.8344ZM0 33.1634V55.6986H2V33.1634H0ZM0 55.6986C0 60.7858 1.65422 65.1229 4.614 68.1944C7.57688 71.2692 11.7759 73 16.715 73V71C12.2583 71 8.59983 69.4484 6.05417 66.8067C3.5054 64.1617 2 60.3481 2 55.6986H0ZM16.715 73H40.7447V71H16.715V73ZM40.7447 73C45.6839 73 49.8765 71.269 52.8327 68.1935C55.7854 65.1216 57.4319 60.7846 57.4319 55.6986H55.4319C55.4319 60.3493 53.9327 64.163 51.3907 66.8076C48.8522 69.4486 45.2011 71 40.7447 71V73ZM57.4319 55.6986V33.1634H55.4319V55.6986H57.4319ZM57.4319 33.1634C57.4319 28.0644 55.7859 23.7205 52.8331 20.6448C49.8768 17.5654 45.684 15.8344 40.7447 15.8344V17.8344C45.2011 17.8344 48.8519 19.3858 51.3903 22.0299C53.9322 24.6776 55.4319 28.4982 55.4319 33.1634H57.4319Z" fill="url(#paint1_linear_1313_488)" mask="url(#path-3-outside-1_1313_488)"/>
</g>
<g filter="url(#filter2_bd_1313_488)">
<mask id="path-5-inside-2_1313_488" fill="white">
<path d="M25.4259 53.3759C24.8051 53.3759 24.1842 53.1415 23.7103 52.6698L17.1333 46.1244C16.1854 45.1811 16.1854 43.653 17.1333 42.7124C18.0812 41.7691 19.6139 41.7663 20.5617 42.7097L25.4259 47.5504L36.867 36.1643C37.8149 35.2209 39.3476 35.2209 40.2955 36.1643C41.2434 37.1076 41.2434 38.6357 40.2955 39.579L27.1415 52.6698C26.6676 53.1415 26.0467 53.3759 25.4259 53.3759Z"/>
</mask>
<path d="M25.4259 53.3759C24.8051 53.3759 24.1842 53.1415 23.7103 52.6698L17.1333 46.1244C16.1854 45.1811 16.1854 43.653 17.1333 42.7124C18.0812 41.7691 19.6139 41.7663 20.5617 42.7097L25.4259 47.5504L36.867 36.1643C37.8149 35.2209 39.3476 35.2209 40.2955 36.1643C41.2434 37.1076 41.2434 38.6357 40.2955 39.579L27.1415 52.6698C26.6676 53.1415 26.0467 53.3759 25.4259 53.3759Z" fill="url(#paint2_linear_1313_488)"/>
<path d="M17.1333 42.7124L17.2742 42.8544L17.2744 42.8542L17.1333 42.7124ZM25.4259 47.5504L25.2848 47.6922L25.4259 47.8326L25.567 47.6922L25.4259 47.5504ZM40.2955 39.579L40.1544 39.4373L40.2955 39.579ZM27.1415 52.6698L27.2826 52.8116L27.1415 52.6698ZM25.4259 53.1759C24.8554 53.1759 24.286 52.9606 23.8514 52.528L23.5692 52.8116C24.0824 53.3223 24.7547 53.5759 25.4259 53.5759V53.1759ZM23.8514 52.528L17.2744 45.9827L16.9922 46.2662L23.5692 52.8116L23.8514 52.528ZM17.2744 45.9827C16.4049 45.1174 16.4052 43.7166 17.2742 42.8544L16.9924 42.5705C15.9656 43.5894 15.9659 45.2448 16.9922 46.2662L17.2744 45.9827ZM17.2744 42.8542C18.1445 41.9882 19.5511 41.986 20.4207 42.8514L20.7028 42.5679C19.6766 41.5466 18.0178 41.55 16.9922 42.5707L17.2744 42.8542ZM20.4207 42.8514L25.2848 47.6922L25.567 47.4087L20.7028 42.5679L20.4207 42.8514ZM25.567 47.6922L37.0081 36.306L36.726 36.0225L25.2848 47.4087L25.567 47.6922ZM37.0081 36.306C37.878 35.4404 39.2846 35.4404 40.1544 36.306L40.4366 36.0225C39.4107 35.0015 37.7519 35.0015 36.726 36.0225L37.0081 36.306ZM40.1544 36.306C41.0238 37.1712 41.0238 38.5721 40.1544 39.4373L40.4366 39.7208C41.463 38.6993 41.463 37.044 40.4366 36.0225L40.1544 36.306ZM40.1544 39.4373L27.0004 52.528L27.2826 52.8116L40.4366 39.7208L40.1544 39.4373ZM27.0004 52.528C26.5657 52.9606 25.9964 53.1759 25.4259 53.1759V53.5759C26.097 53.5759 26.7694 53.3223 27.2826 52.8116L27.0004 52.528Z" fill="url(#paint3_linear_1313_488)" fill-opacity="0.5" mask="url(#path-5-inside-2_1313_488)"/>
</g>
<defs>
<filter id="filter0_f_1313_488" x="14.9751" y="0.817535" width="61.7002" height="63.8591" filterUnits="userSpaceOnUse" color-interpolation-filters="sRGB">
<feFlood flood-opacity="0" result="BackgroundImageFix"/>
<feBlend mode="normal" in="SourceGraphic" in2="BackgroundImageFix" result="shape"/>
<feGaussianBlur stdDeviation="7" result="effect1_foregroundBlur_1313_488"/>
</filter>
<filter id="filter1_b_1313_488" x="-24" y="-8.16557" width="105.432" height="105.166" filterUnits="userSpaceOnUse" color-interpolation-filters="sRGB">
<feFlood flood-opacity="0" result="BackgroundImageFix"/>
<feGaussianBlur in="BackgroundImageFix" stdDeviation="12"/>
<feComposite in2="SourceAlpha" operator="in" result="effect1_backgroundBlur_1313_488"/>
<feBlend mode="normal" in="SourceGraphic" in2="effect1_backgroundBlur_1313_488" result="shape"/>
</filter>
<filter id="filter2_bd_1313_488" x="1.42236" y="20.4568" width="54.584" height="47.9192" filterUnits="userSpaceOnUse" color-interpolation-filters="sRGB">
<feFlood flood-opacity="0" result="BackgroundImageFix"/>
<feGaussianBlur in="BackgroundImageFix" stdDeviation="7.5"/>
<feComposite in2="SourceAlpha" operator="in" result="effect1_backgroundBlur_1313_488"/>
<feColorMatrix in="SourceAlpha" type="matrix" values="0 0 0 0 0 0 0 0 0 0 0 0 0 0 0 0 0 0 127 0" result="hardAlpha"/>
<feOffset dx="5" dy="5"/>
<feGaussianBlur stdDeviation="5"/>
<feColorMatrix type="matrix" values="0 0 0 0 0.454902 0 0 0 0 0.870588 0 0 0 0 0.376471 0 0 0 0.5 0"/>
<feBlend mode="normal" in2="effect1_backgroundBlur_1313_488" result="effect2_dropShadow_1313_488"/>
<feBlend mode="normal" in="SourceGraphic" in2="effect2_dropShadow_1313_488" result="shape"/>
</filter>
<linearGradient id="paint0_linear_1313_488" x1="72.9999" y1="15.1685" x2="30.5838" y2="41.2537" gradientUnits="userSpaceOnUse">
<stop stop-color="#9BF763"/>
<stop offset="1" stop-color="#26AB5B"/>
</linearGradient>
<linearGradient id="paint1_linear_1313_488" x1="9.82386" y1="23.2613" x2="44.9775" y2="67.0102" gradientUnits="userSpaceOnUse">
<stop stop-color="white" stop-opacity="0.25"/>
<stop offset="1" stop-color="white" stop-opacity="0"/>
</linearGradient>
<linearGradient id="paint2_linear_1313_488" x1="39.2634" y1="38.6926" x2="11.9048" y2="39.9164" gradientUnits="userSpaceOnUse">
<stop stop-color="white"/>
<stop offset="1" stop-color="white" stop-opacity="0.2"/>
</linearGradient>
<linearGradient id="paint3_linear_1313_488" x1="19.0706" y1="41.4678" x2="39.9453" y2="41.6259" gradientUnits="userSpaceOnUse">
<stop stop-color="white"/>
<stop offset="1" stop-color="white" stop-opacity="0"/>
</linearGradient>
</defs>
</svg>
