<svg width="35" height="108" viewBox="0 0 35 108" fill="none" xmlns="http://www.w3.org/2000/svg">
<mask id="path-1-outside-1_1313_383" maskUnits="userSpaceOnUse" x="-2" y="20" width="33" height="67" fill="black">
<rect fill="white" x="-2" y="20" width="33" height="67"/>
<path d="M17.4403 22.3939H28.1727V85H15.8304V35.4518L4.02467 38.761L0.983809 28.2074L17.4403 22.3939Z"/>
</mask>
<path d="M17.4403 22.3939V20.3939H17.0974L16.7741 20.5082L17.4403 22.3939ZM28.1727 22.3939H30.1727V20.3939H28.1727V22.3939ZM28.1727 85V87H30.1727V85H28.1727ZM15.8304 85H13.8304V87H15.8304V85ZM15.8304 35.4518H17.8304V32.8141L15.2906 33.526L15.8304 35.4518ZM4.02467 38.761L2.10286 39.3147L2.65261 41.2226L4.56448 40.6867L4.02467 38.761ZM0.983809 28.2074L0.317633 26.3216L-1.45998 26.9495L-0.938004 28.7611L0.983809 28.2074ZM17.4403 24.3939H28.1727V20.3939H17.4403V24.3939ZM26.1727 22.3939V85H30.1727V22.3939H26.1727ZM28.1727 83H15.8304V87H28.1727V83ZM17.8304 85V35.4518H13.8304V85H17.8304ZM15.2906 33.526L3.48487 36.8352L4.56448 40.6867L16.3702 37.3776L15.2906 33.526ZM5.94649 38.2072L2.90562 27.6536L-0.938004 28.7611L2.10286 39.3147L5.94649 38.2072ZM1.64999 30.0932L18.1064 24.2797L16.7741 20.5082L0.317633 26.3216L1.64999 30.0932Z" fill="currentColor" mask="url(#path-1-outside-1_1313_383)"/>
</svg>
