<svg width="45" height="108" viewBox="0 0 45 108" fill="none" xmlns="http://www.w3.org/2000/svg">
<mask id="path-1-outside-1_1313_385" maskUnits="userSpaceOnUse" x="-1" y="19" width="48" height="68" fill="black">
<rect fill="white" x="-1" y="19" width="48" height="68"/>
<path d="M2.4148 85V75.788L23.7903 53.7864C28.5603 48.7779 30.9453 44.6042 30.9453 41.2652C30.9453 38.8206 30.1702 36.853 28.6199 35.3623C27.1293 33.8717 25.1915 33.1264 22.8065 33.1264C18.0961 33.1264 14.6081 35.571 12.3423 40.4603L1.96762 34.3785C3.93524 30.0855 6.76742 26.8062 10.4642 24.5404C14.1609 22.2747 18.2154 21.1418 22.6276 21.1418C28.292 21.1418 33.1514 22.9306 37.2059 26.5081C41.2604 30.0259 43.2876 34.7959 43.2876 40.818C43.2876 47.3171 39.8592 53.9951 33.0023 60.852L20.7494 73.1048H44.2714V85H2.4148Z"/>
</mask>
<path d="M2.4148 85H0.414805V87H2.4148V85ZM2.4148 75.788L0.980329 74.3943L0.414805 74.9764V75.788H2.4148ZM23.7903 53.7864L25.2248 55.1801L25.2317 55.1729L25.2386 55.1657L23.7903 53.7864ZM28.6199 35.3623L27.2057 36.7766L27.2196 36.7904L27.2337 36.804L28.6199 35.3623ZM12.3423 40.4603L11.3309 42.1857L13.2309 43.2995L14.157 41.3012L12.3423 40.4603ZM1.96762 34.3785L0.149489 33.5452L-0.604051 35.1893L0.95618 36.1039L1.96762 34.3785ZM10.4642 24.5404L9.41903 22.8352H9.41903L10.4642 24.5404ZM37.2059 26.5081L35.8826 28.0077L35.8889 28.0132L35.8952 28.0187L37.2059 26.5081ZM20.7494 73.1049L19.3352 71.6906L15.921 75.1049H20.7494V73.1049ZM44.2714 73.1049H46.2714V71.1049H44.2714V73.1049ZM44.2714 85V87H46.2714V85H44.2714ZM4.4148 85V75.788H0.414805V85H4.4148ZM3.84928 77.1816L25.2248 55.1801L22.3558 52.3928L0.980329 74.3943L3.84928 77.1816ZM25.2386 55.1657C27.6908 52.5909 29.5939 50.1655 30.893 47.892C32.1869 45.6278 32.9453 43.4028 32.9453 41.2652H28.9453C28.9453 42.4666 28.5112 43.998 27.42 45.9075C26.3342 47.8078 24.6598 49.9734 22.342 52.4071L25.2386 55.1657ZM32.9453 41.2652C32.9453 38.358 32.0036 35.8413 30.0061 33.9207L27.2337 36.804C28.3367 37.8646 28.9453 39.2832 28.9453 41.2652H32.9453ZM30.0341 33.9481C28.1179 32.0319 25.646 31.1264 22.8065 31.1264V35.1264C24.737 35.1264 26.1406 35.7115 27.2057 36.7766L30.0341 33.9481ZM22.8065 31.1264C20.086 31.1264 17.6256 31.8392 15.5098 33.3221C13.4102 34.7936 11.7701 36.9385 10.5277 39.6193L14.157 41.3012C15.1803 39.0928 16.4171 37.5708 17.8055 36.5977C19.1778 35.6359 20.8166 35.1264 22.8065 35.1264V31.1264ZM13.3538 38.7349L2.97906 32.6531L0.95618 36.1039L11.3309 42.1857L13.3538 38.7349ZM3.78575 35.2118C5.60336 31.2461 8.18126 28.2854 11.5093 26.2456L9.41903 22.8352C5.35357 25.327 2.26711 28.925 0.149489 33.5452L3.78575 35.2118ZM11.5093 26.2456C14.8857 24.1762 18.5774 23.1418 22.6276 23.1418V19.1418C17.8533 19.1418 13.4361 20.3732 9.41903 22.8352L11.5093 26.2456ZM22.6276 23.1418C27.83 23.1418 32.2121 24.769 35.8826 28.0077L38.5291 25.0084C34.0907 21.0921 28.7539 19.1418 22.6276 19.1418V23.1418ZM35.8952 28.0187C39.4555 31.1078 41.2876 35.2966 41.2876 40.818H45.2876C45.2876 34.2953 43.0652 28.944 38.5166 24.9974L35.8952 28.0187ZM41.2876 40.818C41.2876 46.5746 38.2527 52.7732 31.5881 59.4377L34.4165 62.2662C41.4657 55.217 45.2876 48.0596 45.2876 40.818H41.2876ZM31.5881 59.4377L19.3352 71.6906L22.1636 74.5191L34.4165 62.2662L31.5881 59.4377ZM20.7494 75.1049H44.2714V71.1049H20.7494V75.1049ZM42.2714 73.1049V85H46.2714V73.1049H42.2714ZM44.2714 83H2.4148V87H44.2714V83Z" fill="#00398D" mask="url(#path-1-outside-1_1313_385)"/>
</svg>
