<svg width="46" height="108" viewBox="0 0 46 108" fill="none" xmlns="http://www.w3.org/2000/svg">
<mask id="path-1-outside-1_1313_398" maskUnits="userSpaceOnUse" x="-1" y="20" width="49" height="69" fill="black">
<rect fill="white" x="-1" y="20" width="49" height="69"/>
<path d="M31.5713 47.7941C35.8047 49.0462 39.2331 51.2524 41.8566 54.4125C44.5397 57.513 45.8813 61.2693 45.8813 65.6816C45.8813 72.121 43.705 77.1593 39.3524 80.7965C35.0594 84.4336 29.7826 86.2521 23.522 86.2521C18.6328 86.2521 14.2503 85.1491 10.3747 82.9429C6.55873 80.6772 3.78618 77.368 2.05706 73.0154L12.6106 66.9337C14.1609 71.7633 17.798 74.1781 23.522 74.1781C26.6821 74.1781 29.1267 73.4328 30.8558 71.9422C32.6446 70.3919 33.539 68.3051 33.539 65.6816C33.539 63.1177 32.6446 61.0606 30.8558 59.5104C29.1267 57.9601 26.6821 57.185 23.522 57.185H20.8389L16.0987 50.03L28.441 33.9313H3.93524V22.3939H43.2876V32.5898L31.5713 47.7941Z"/>
</mask>
<path d="M31.5713 47.7941L29.9871 46.5733L28.2062 48.8844L31.0041 49.712L31.5713 47.7941ZM41.8566 54.4125L40.3178 55.69L40.3309 55.7057L40.3443 55.7212L41.8566 54.4125ZM39.3524 80.7964L38.0699 79.2617L38.0595 79.2705L39.3524 80.7964ZM10.3747 82.9429L9.35364 84.6627L9.3694 84.672L9.38532 84.6811L10.3747 82.9429ZM2.05706 73.0154L1.05846 71.2826L-0.440273 72.1462L0.198352 73.7538L2.05706 73.0154ZM12.6106 66.9337L14.5149 66.3224L13.758 63.9642L11.6121 65.2008L12.6106 66.9337ZM30.8558 71.9422L32.1617 73.457L32.1657 73.4535L30.8558 71.9422ZM30.8558 59.5104L29.5208 60.9995L29.5333 61.0108L29.546 61.0218L30.8558 59.5104ZM20.8389 57.185L19.1716 58.2896L19.7648 59.185H20.8389V57.185ZM16.0987 50.03L14.5115 48.8132L13.6435 49.9453L14.4314 51.1346L16.0987 50.03ZM28.441 33.9313L30.0282 35.1482L32.4945 31.9313H28.441V33.9313ZM3.93524 33.9313H1.93524V35.9313H3.93524V33.9313ZM3.93524 22.3939V20.3939H1.93524V22.3939H3.93524ZM43.2876 22.3939H45.2876V20.3939H43.2876V22.3939ZM43.2876 32.5898L44.8718 33.8106L45.2876 33.271V32.5898H43.2876ZM31.0041 49.712C34.8871 50.8605 37.9667 52.858 40.3178 55.69L43.3954 53.135C40.4995 49.6467 36.7223 47.232 32.1386 45.8762L31.0041 49.712ZM40.3443 55.7212C42.6879 58.4294 43.8813 61.7104 43.8813 65.6816H47.8813C47.8813 60.8282 46.3916 56.5965 43.369 53.1037L40.3443 55.7212ZM43.8813 65.6816C43.8813 71.6183 41.903 76.0587 38.0699 79.2617L40.6348 82.3312C45.5069 78.2599 47.8813 72.6237 47.8813 65.6816H43.8813ZM38.0595 79.2705C34.1691 82.5666 29.3661 84.2521 23.522 84.2521V88.2521C30.199 88.2521 35.9497 86.3005 40.6452 82.3224L38.0595 79.2705ZM23.522 84.2521C18.9454 84.2521 14.9097 83.2231 11.3641 81.2048L9.38532 84.6811C13.5909 87.075 18.3202 88.2521 23.522 88.2521V84.2521ZM11.3958 81.2232C7.98168 79.1961 5.49141 76.2433 3.91576 72.277L0.198352 73.7538C2.08094 78.4927 5.13578 82.1583 9.35364 84.6627L11.3958 81.2232ZM3.05565 74.7483L13.6092 68.6665L11.6121 65.2008L1.05846 71.2826L3.05565 74.7483ZM10.7063 67.5449C11.5966 70.3185 13.139 72.5354 15.3949 74.0332C17.6292 75.5166 20.3871 76.1781 23.522 76.1781V72.1781C20.9329 72.1781 19.0103 71.6322 17.6074 70.7008C16.2263 69.7838 15.1749 68.3784 14.5149 66.3224L10.7063 67.5449ZM23.522 76.1781C26.9778 76.1781 29.9511 75.3627 32.1617 73.457L29.55 70.4273C28.3023 71.5029 26.3864 72.1781 23.522 72.1781V76.1781ZM32.1657 73.4535C34.4434 71.4795 35.539 68.8145 35.539 65.6816H31.539C31.539 67.7956 30.8458 69.3043 29.546 70.4308L32.1657 73.4535ZM35.539 65.6816C35.539 62.5922 34.4323 59.9634 32.1657 57.999L29.546 61.0218C30.8568 62.1578 31.539 63.6432 31.539 65.6816H35.539ZM32.1909 58.0213C29.9803 56.0393 26.9955 55.185 23.522 55.185V59.185C26.3687 59.185 28.2732 59.881 29.5208 60.9995L32.1909 58.0213ZM23.522 55.185H20.8389V59.185H23.522V55.185ZM22.5062 56.0804L17.766 48.9255L14.4314 51.1346L19.1716 58.2896L22.5062 56.0804ZM17.6859 51.2469L30.0282 35.1482L26.8538 32.7145L14.5115 48.8132L17.6859 51.2469ZM28.441 31.9313H3.93524V35.9313H28.441V31.9313ZM5.93524 33.9313V22.3939H1.93524V33.9313H5.93524ZM3.93524 24.3939H43.2876V20.3939H3.93524V24.3939ZM41.2876 22.3939V32.5898H45.2876V22.3939H41.2876ZM41.7034 31.369L29.9871 46.5733L33.1555 49.0149L44.8718 33.8106L41.7034 31.369Z" fill="currentColor" mask="url(#path-1-outside-1_1313_398)"/>
</svg>
