<svg width="51" height="108" viewBox="0 0 51 108" fill="none" xmlns="http://www.w3.org/2000/svg">
<mask id="path-1-outside-1_1313_399" maskUnits="userSpaceOnUse" x="-1" y="20" width="54" height="67" fill="black">
<rect fill="white" x="-1" y="20" width="54" height="67"/>
<path d="M50.6215 62.909V74.357H43.9137V85H31.4819V74.357H1.87818V62.909L22.7171 22.3939H35.9538L15.2043 62.909H31.4819V48.0624H43.9137V62.909H50.6215Z"/>
</mask>
<path d="M50.6215 62.909H52.6215V60.909H50.6215V62.909ZM50.6215 74.357V76.357H52.6215V74.357H50.6215ZM43.9137 74.357V72.357H41.9137V74.357H43.9137ZM43.9137 85V87H45.9137V85H43.9137ZM31.4819 85H29.4819V87H31.4819V85ZM31.4819 74.357H33.4819V72.357H31.4819V74.357ZM1.87818 74.357H-0.121818V76.357H1.87818V74.357ZM1.87818 62.909L0.0996517 61.9942L-0.121818 62.4248V62.909H1.87818ZM22.7171 22.3939V20.3939H21.4967L20.9385 21.4792L22.7171 22.3939ZM35.9538 22.3939L37.7339 23.3056L39.2251 20.3939H35.9538V22.3939ZM15.2043 62.909L13.4242 61.9973L11.933 64.909H15.2043V62.909ZM31.4819 62.909V64.909H33.4819V62.909H31.4819ZM31.4819 48.0624V46.0624H29.4819V48.0624H31.4819ZM43.9137 48.0624H45.9137V46.0624H43.9137V48.0624ZM43.9137 62.909H41.9137V64.909H43.9137V62.909ZM48.6215 62.909V74.357H52.6215V62.909H48.6215ZM50.6215 72.357H43.9137V76.357H50.6215V72.357ZM41.9137 74.357V85H45.9137V74.357H41.9137ZM43.9137 83H31.4819V87H43.9137V83ZM33.4819 85V74.357H29.4819V85H33.4819ZM31.4819 72.357H1.87818V76.357H31.4819V72.357ZM3.87818 74.357V62.909H-0.121818V74.357H3.87818ZM3.65671 63.8238L24.4956 23.3087L20.9385 21.4792L0.0996517 61.9942L3.65671 63.8238ZM22.7171 24.3939H35.9538V20.3939H22.7171V24.3939ZM34.1736 21.4823L13.4242 61.9973L16.9845 63.8207L37.7339 23.3056L34.1736 21.4823ZM15.2043 64.909H31.4819V60.909H15.2043V64.909ZM33.4819 62.909V48.0624H29.4819V62.909H33.4819ZM31.4819 50.0624H43.9137V46.0624H31.4819V50.0624ZM41.9137 48.0624V62.909H45.9137V48.0624H41.9137ZM43.9137 64.909H50.6215V60.909H43.9137V64.909Z" fill="currentColor" mask="url(#path-1-outside-1_1313_399)"/>
</svg>
