<svg width="47" height="108" viewBox="0 0 47 108" fill="none" xmlns="http://www.w3.org/2000/svg">
<mask id="path-1-outside-1_1313_400" maskUnits="userSpaceOnUse" x="-1" y="20" width="50" height="69" fill="black">
<rect fill="white" x="-1" y="20" width="50" height="69"/>
<path d="M25.0424 45.2004C31.0645 45.2004 36.1326 47.019 40.2467 50.6561C44.3609 54.2336 46.4179 59.2421 46.4179 65.6816C46.4179 72.121 44.2416 77.1593 39.889 80.7965C35.596 84.4336 30.3192 86.2521 24.0586 86.2521C18.9905 86.2521 14.5186 85.1192 10.643 82.8535C6.76742 80.5878 3.96505 77.2488 2.23593 72.8365L12.7895 66.6654C14.3398 71.6739 18.0961 74.1781 24.0586 74.1781C27.2187 74.1781 29.6633 73.4328 31.3925 71.9422C33.1812 70.3919 34.0756 68.3051 34.0756 65.6816C34.0756 63.1177 33.211 61.0606 31.4819 59.5104C29.7528 57.9601 27.3976 57.185 24.4164 57.185H5.45567L7.95991 22.3939H43.4665V33.9313H19.4079L18.6029 45.2004H25.0424Z"/>
</mask>
<path d="M40.2467 50.6561L38.9221 52.1545L38.9282 52.1599L38.9344 52.1653L40.2467 50.6561ZM39.889 80.7964L38.6065 79.2617L38.5962 79.2705L39.889 80.7964ZM10.643 82.8535L9.63364 84.5801H9.63364L10.643 82.8535ZM2.23593 72.8365L1.22637 71.11L-0.250362 71.9736L0.373816 73.5663L2.23593 72.8365ZM12.7895 66.6654L14.7001 66.074L13.9551 63.667L11.78 64.9389L12.7895 66.6654ZM31.3925 71.9422L32.6983 73.457L32.7023 73.4535L31.3925 71.9422ZM31.4819 59.5104L32.817 58.0213L31.4819 59.5104ZM5.45567 57.185L3.46083 57.0414L3.30654 59.185H5.45567V57.185ZM7.95991 22.3939V20.3939H6.0987L5.96507 22.2504L7.95991 22.3939ZM43.4665 22.3939H45.4665V20.3939H43.4665V22.3939ZM43.4665 33.9313V35.9313H45.4665V33.9313H43.4665ZM19.4079 33.9313V31.9313H17.5456L17.413 33.7889L19.4079 33.9313ZM18.6029 45.2004L16.608 45.0579L16.455 47.2004H18.6029V45.2004ZM25.0424 47.2004C30.6275 47.2004 35.21 48.8728 38.9221 52.1545L41.5714 49.1577C37.0553 45.1652 31.5016 43.2004 25.0424 43.2004V47.2004ZM38.9344 52.1653C42.5315 55.2933 44.4179 59.7056 44.4179 65.6816H48.4179C48.4179 58.7786 46.1902 53.1739 41.5591 49.1469L38.9344 52.1653ZM44.4179 65.6816C44.4179 71.6183 42.4397 76.0587 38.6066 79.2617L41.1714 82.3312C46.0436 78.2599 48.4179 72.6237 48.4179 65.6816H44.4179ZM38.5962 79.2705C34.7057 82.5666 29.9028 84.2521 24.0586 84.2521V88.2521C30.7357 88.2521 36.4864 86.3005 41.1818 82.3224L38.5962 79.2705ZM24.0586 84.2521C19.2986 84.2521 15.1838 83.1914 11.6524 81.1269L9.63364 84.5801C13.8534 87.0471 18.6824 88.2521 24.0586 88.2521V84.2521ZM11.6524 81.1269C8.18761 79.1013 5.67288 76.1253 4.09804 72.1068L0.373816 73.5663C2.25722 78.3722 5.34722 82.0742 9.63364 84.5801L11.6524 81.1269ZM3.24549 74.563L13.7991 68.3919L11.78 64.9389L1.22637 71.11L3.24549 74.563ZM10.879 67.2567C11.7669 70.1257 13.3394 72.4169 15.6601 73.964C17.957 75.4953 20.807 76.1781 24.0586 76.1781V72.1781C21.3477 72.1781 19.3383 71.6088 17.8789 70.6358C16.4431 69.6787 15.3623 68.2136 14.7001 66.074L10.879 67.2567ZM24.0586 76.1781C27.5144 76.1781 30.4877 75.3627 32.6983 73.457L30.0866 70.4273C28.839 71.5029 26.9231 72.1781 24.0586 72.1781V76.1781ZM32.7023 73.4535C34.98 71.4795 36.0756 68.8145 36.0756 65.6816H32.0756C32.0756 67.7956 31.3824 69.3043 30.0826 70.4308L32.7023 73.4535ZM36.0756 65.6816C36.0756 62.6154 35.0161 59.9928 32.817 58.0213L30.1468 60.9995C31.406 62.1284 32.0756 63.62 32.0756 65.6816H36.0756ZM32.817 58.0213C30.6263 56.0572 27.7464 55.185 24.4164 55.185V59.185C27.0488 59.185 28.8793 59.8631 30.1468 60.9995L32.817 58.0213ZM24.4164 55.185H5.45567V59.185H24.4164V55.185ZM7.45051 57.3286L9.95475 22.5375L5.96507 22.2504L3.46083 57.0414L7.45051 57.3286ZM7.95991 24.3939H43.4665V20.3939H7.95991V24.3939ZM41.4665 22.3939V33.9313H45.4665V22.3939H41.4665ZM43.4665 31.9313H19.4079V35.9313H43.4665V31.9313ZM17.413 33.7889L16.608 45.0579L20.5979 45.3429L21.4028 34.0738L17.413 33.7889ZM18.6029 47.2004H25.0424V43.2004H18.6029V47.2004Z" fill="currentColor" mask="url(#path-1-outside-1_1313_400)"/>
</svg>
