<svg width="48" height="108" viewBox="0 0 48 108" fill="none" xmlns="http://www.w3.org/2000/svg">
<mask id="path-1-outside-1_1313_421" maskUnits="userSpaceOnUse" x="0" y="20" width="50" height="69" fill="black">
<rect fill="white" y="20" width="50" height="69"/>
<path d="M25.4896 42.6962C31.9887 42.8751 37.2655 44.9917 41.32 49.0462C45.3745 53.0411 47.4017 58.1688 47.4017 64.4294C47.4017 70.8093 45.285 76.0563 41.0517 80.1704C36.8183 84.2249 31.3627 86.2521 24.6847 86.2521C18.0067 86.2521 12.551 84.2249 8.31766 80.1704C4.14392 76.1159 2.05706 70.8689 2.05706 64.4294C2.05706 59.6595 3.27936 55.4559 5.72398 51.8188L25.2213 22.3939H39.3524L25.4896 42.6962ZM17.2614 71.8527C19.229 73.7011 21.7034 74.6253 24.6847 74.6253C27.6659 74.6253 30.1403 73.7011 32.108 71.8527C34.1352 70.0044 35.1488 67.5299 35.1488 64.4294C35.1488 61.3886 34.1352 58.944 32.108 57.0956C30.1403 55.2472 27.6659 54.323 24.6847 54.323C21.7034 54.323 19.229 55.2472 17.2614 57.0956C15.2938 58.8843 14.31 61.3289 14.31 64.4294C14.31 67.5299 15.2938 70.0044 17.2614 71.8527Z"/>
</mask>
<path d="M25.4896 42.6962L23.8379 41.5684L21.7716 44.5946L25.4346 44.6954L25.4896 42.6962ZM41.32 49.0462L39.9058 50.4604L39.911 50.4657L39.9163 50.4709L41.32 49.0462ZM41.0517 80.1704L42.4351 81.6148L42.4403 81.6097L42.4456 81.6047L41.0517 80.1704ZM8.31766 80.1704L6.92409 81.6049L6.92917 81.6099L6.93429 81.6148L8.31766 80.1704ZM5.72398 51.8188L7.38392 52.9345L7.39119 52.9235L5.72398 51.8188ZM25.2213 22.3939V20.3939H24.1473L23.5541 21.2892L25.2213 22.3939ZM39.3524 22.3939L41.0041 23.5217L43.1398 20.3939H39.3524V22.3939ZM17.2614 71.8527L15.892 73.3104L17.2614 71.8527ZM32.108 71.8527L30.7605 70.3748L30.7495 70.3848L30.7386 70.395L32.108 71.8527ZM32.108 57.0956L30.7386 58.5533L30.7495 58.5635L30.7605 58.5735L32.108 57.0956ZM17.2614 57.0956L18.6067 58.5755L18.6188 58.5645L18.6307 58.5533L17.2614 57.0956ZM25.4346 44.6954C31.4964 44.8623 36.262 46.8167 39.9058 50.4604L42.7342 47.632C38.269 43.1668 32.481 40.8879 25.5446 40.697L25.4346 44.6954ZM39.9163 50.4709C43.5493 54.0504 45.4017 58.6455 45.4017 64.4294H49.4017C49.4017 57.6922 47.1997 52.0318 42.7237 47.6216L39.9163 50.4709ZM45.4017 64.4294C45.4017 70.3174 43.4703 75.031 39.6578 78.7361L42.4456 81.6047C47.0998 77.0815 49.4017 71.3012 49.4017 64.4294H45.4017ZM39.6683 78.726C35.8597 82.3737 30.9247 84.2521 24.6847 84.2521V88.2521C31.8006 88.2521 37.7769 86.0761 42.4351 81.6148L39.6683 78.726ZM24.6847 84.2521C18.4446 84.2521 13.5096 82.3737 9.70103 78.726L6.93429 81.6148C11.5924 86.0761 17.5687 88.2521 24.6847 88.2521V84.2521ZM9.71123 78.7358C5.96848 75.1 4.05706 70.392 4.05706 64.4294H0.0570562C0.0570562 71.3459 2.31937 77.1318 6.92409 81.6049L9.71123 78.7358ZM4.05706 64.4294C4.05706 60.0201 5.18062 56.2125 7.38388 52.9345L4.06408 50.7031C1.37811 54.6993 0.0570562 59.2988 0.0570562 64.4294H4.05706ZM7.39119 52.9235L26.8885 23.4987L23.5541 21.2892L4.05677 50.7141L7.39119 52.9235ZM25.2213 24.3939H39.3524V20.3939H25.2213V24.3939ZM37.7007 21.2661L23.8379 41.5684L27.1413 43.824L41.0041 23.5217L37.7007 21.2661ZM15.892 73.3104C18.2705 75.5448 21.2523 76.6253 24.6847 76.6253V72.6253C22.1546 72.6253 20.1875 71.8574 18.6307 70.395L15.892 73.3104ZM24.6847 76.6253C28.117 76.6253 31.0988 75.5448 33.4773 73.3104L30.7386 70.395C29.1819 71.8574 27.2148 72.6253 24.6847 72.6253V76.6253ZM33.4555 73.3306C35.9547 71.052 37.1488 68.0114 37.1488 64.4294H33.1488C33.1488 67.0485 32.3157 68.9568 30.7605 70.3748L33.4555 73.3306ZM37.1488 64.4294C37.1488 60.894 35.946 57.8884 33.4555 55.6177L30.7605 58.5735C32.3244 59.9995 33.1488 61.8832 33.1488 64.4294H37.1488ZM33.4773 55.6379C31.0988 53.4036 28.117 52.323 24.6847 52.323V56.323C27.2148 56.323 29.1819 57.0909 30.7386 58.5533L33.4773 55.6379ZM24.6847 52.323C21.2523 52.323 18.2705 53.4036 15.892 55.6379L18.6307 58.5533C20.1875 57.0909 22.1546 56.323 24.6847 56.323V52.323ZM15.916 55.6157C13.4612 57.8474 12.31 60.868 12.31 64.4294H16.31C16.31 61.7899 17.1264 59.9213 18.6067 58.5755L15.916 55.6157ZM12.31 64.4294C12.31 67.9922 13.4609 71.0266 15.892 73.3104L18.6307 70.395C17.1266 68.9821 16.31 67.0676 16.31 64.4294H12.31Z" fill="#00398D" mask="url(#path-1-outside-1_1313_421)"/>
</svg>
