<svg width="42" height="108" viewBox="0 0 42 108" fill="none" xmlns="http://www.w3.org/2000/svg">
<mask id="path-1-outside-1_1313_424" maskUnits="userSpaceOnUse" x="-1" y="20" width="45" height="67" fill="black">
<rect fill="white" x="-1" y="20" width="45" height="67"/>
<path d="M1.16268 22.3939H41.5883V32.8581L20.3917 85H7.33385L27.9044 34.1997H1.16268V22.3939Z"/>
</mask>
<path d="M1.16268 22.3939V20.3939H-0.837316V22.3939H1.16268ZM41.5883 22.3939H43.5883V20.3939H41.5883V22.3939ZM41.5883 32.8581L43.4411 33.6113L43.5883 33.2491V32.8581H41.5883ZM20.3917 85V87H21.7376L22.2444 85.7532L20.3917 85ZM7.33385 85L5.48007 84.2493L4.36625 87H7.33385V85ZM27.9044 34.1997L29.7582 34.9503L30.872 32.1997H27.9044V34.1997ZM1.16268 34.1997H-0.837316V36.1997H1.16268V34.1997ZM1.16268 24.3939H41.5883V20.3939H1.16268V24.3939ZM39.5883 22.3939V32.8581H43.5883V22.3939H39.5883ZM39.7355 32.1049L18.5389 84.2468L22.2444 85.7532L43.4411 33.6113L39.7355 32.1049ZM20.3917 83H7.33385V87H20.3917V83ZM9.18764 85.7507L29.7582 34.9503L26.0506 33.449L5.48007 84.2493L9.18764 85.7507ZM27.9044 32.1997H1.16268V36.1997H27.9044V32.1997ZM3.16268 34.1997V22.3939H-0.837316V34.1997H3.16268Z" fill="currentColor" mask="url(#path-1-outside-1_1313_424)"/>
</svg>
