<svg width="48" height="108" viewBox="0 0 48 108" fill="none" xmlns="http://www.w3.org/2000/svg">
<mask id="path-1-outside-1_1313_427" maskUnits="userSpaceOnUse" x="0" y="19" width="50" height="70" fill="black">
<rect fill="white" y="19" width="50" height="70"/>
<path d="M39.1735 52.4449C44.9571 55.9031 47.8489 60.9414 47.8489 67.5597C47.8489 73.3433 45.8217 77.9046 41.7672 81.2436C37.7723 84.5826 32.3166 86.2521 25.4002 86.2521C18.4241 86.2521 12.9386 84.5826 8.94372 81.2436C4.94886 77.9046 2.95143 73.3433 2.95143 67.5597C2.95143 60.9414 5.81342 55.9031 11.5374 52.4449C7.18479 49.2847 5.00848 44.9619 5.00848 39.4765C5.00848 33.6928 6.94629 29.1912 10.8219 25.9714C14.7571 22.7517 19.6166 21.1418 25.4002 21.1418C31.1838 21.1418 36.0134 22.7517 39.889 25.9714C43.7646 29.1912 45.7024 33.6928 45.7024 39.4765C45.7024 45.0216 43.5261 49.3444 39.1735 52.4449ZM31.2136 34.7363C29.723 33.4245 27.7852 32.7687 25.4002 32.7687C23.0152 32.7687 21.0774 33.4245 19.5868 34.7363C18.0961 36.048 17.3508 37.8368 17.3508 40.1025C17.3508 42.3683 18.0961 44.1868 19.5868 45.5582C21.0774 46.8699 23.0152 47.5258 25.4002 47.5258C27.7852 47.5258 29.723 46.8699 31.2136 45.5582C32.7042 44.1868 33.4495 42.3683 33.4495 40.1025C33.4495 37.8368 32.7042 36.048 31.2136 34.7363ZM17.9769 72.3894C19.8849 73.88 22.3593 74.6253 25.4002 74.6253C28.441 74.6253 30.8857 73.88 32.734 72.3894C34.642 70.8391 35.596 68.6926 35.596 65.9499C35.596 63.2668 34.642 61.1799 32.734 59.6893C30.8857 58.139 28.441 57.3639 25.4002 57.3639C22.3593 57.3639 19.8849 58.139 17.9769 59.6893C16.1285 61.1799 15.2043 63.2668 15.2043 65.9499C15.2043 68.6926 16.1285 70.8391 17.9769 72.3894Z"/>
</mask>
<path d="M39.1735 52.4449L38.0131 50.8159L35.521 52.5911L38.1471 54.1614L39.1735 52.4449ZM41.7672 81.2436L40.4958 79.6998L40.4901 79.7044L40.4846 79.7091L41.7672 81.2436ZM8.94372 81.2436L7.6611 82.7782L8.94372 81.2436ZM11.5374 52.4449L12.5716 54.1567L15.1521 52.5977L12.7124 50.8264L11.5374 52.4449ZM10.8219 25.9714L9.55543 24.4235L9.54963 24.4283L9.54386 24.4331L10.8219 25.9714ZM39.889 25.9714L38.611 27.5098L39.889 25.9714ZM31.2136 34.7363L32.5348 33.2349L31.2136 34.7363ZM19.5868 45.5582L18.2326 47.03L18.2489 47.045L18.2655 47.0596L19.5868 45.5582ZM31.2136 45.5582L32.5348 47.0596L32.5514 47.045L32.5677 47.03L31.2136 45.5582ZM17.9769 72.3894L16.6917 73.9217L16.7182 73.944L16.7456 73.9654L17.9769 72.3894ZM32.734 72.3894L33.9895 73.9462L33.9952 73.9416L32.734 72.3894ZM32.734 59.6893L31.4488 61.2216L31.4754 61.2439L31.5027 61.2653L32.734 59.6893ZM17.9769 59.6893L19.2324 61.2461L19.2381 61.2415L17.9769 59.6893ZM38.1471 54.1614C43.3403 57.2666 45.8489 61.6606 45.8489 67.5597H49.8489C49.8489 60.2222 46.5739 54.5396 40.1999 50.7283L38.1471 54.1614ZM45.8489 67.5597C45.8489 72.8143 44.0385 76.7822 40.4958 79.6998L43.0386 82.7875C47.6049 79.027 49.8489 73.8724 49.8489 67.5597H45.8489ZM40.4846 79.7091C36.9529 82.6609 32.003 84.2521 25.4002 84.2521V88.2521C32.6303 88.2521 38.5918 86.5043 43.0498 82.7782L40.4846 79.7091ZM25.4002 84.2521C18.7328 84.2521 13.7552 82.6586 10.2263 79.7091L7.6611 82.7782C12.122 86.5067 18.1153 88.2521 25.4002 88.2521V84.2521ZM10.2263 79.7091C6.74009 76.7952 4.95143 72.825 4.95143 67.5597H0.951428C0.951428 73.8617 3.15763 79.0141 7.6611 82.7782L10.2263 79.7091ZM4.95143 67.5597C4.95143 61.6507 7.43938 57.2574 12.5716 54.1567L10.5032 50.733C4.18746 54.5488 0.951428 60.2321 0.951428 67.5597H4.95143ZM12.7124 50.8264C8.89014 48.0513 7.00848 44.3365 7.00848 39.4765H3.00848C3.00848 45.5873 5.47944 50.5181 10.3624 54.0633L12.7124 50.8264ZM7.00848 39.4765C7.00848 34.1891 8.75236 30.2909 12.0999 27.5098L9.54386 24.4331C5.14023 28.0915 3.00848 33.1966 3.00848 39.4765H7.00848ZM12.0884 27.5193C15.6176 24.6318 20.0112 23.1418 25.4002 23.1418V19.1418C19.222 19.1418 13.8967 20.8716 9.55543 24.4235L12.0884 27.5193ZM25.4002 23.1418C30.7899 23.1418 35.1468 24.6319 38.611 27.5098L41.167 24.4331C36.88 20.8715 31.5777 19.1418 25.4002 19.1418V23.1418ZM38.611 27.5098C41.9585 30.2909 43.7024 34.1891 43.7024 39.4765H47.7024C47.7024 33.1966 45.5707 28.0915 41.167 24.4331L38.611 27.5098ZM43.7024 39.4765C43.7024 44.4036 41.8159 48.1071 38.0131 50.8159L40.3339 54.0738C45.2364 50.5816 47.7024 45.6396 47.7024 39.4765H43.7024ZM32.5348 33.2349C30.6087 31.5399 28.1688 30.7687 25.4002 30.7687V34.7687C27.4015 34.7687 28.8372 35.3092 29.8923 36.2377L32.5348 33.2349ZM25.4002 30.7687C22.6315 30.7687 20.1916 31.5399 18.2655 33.2349L20.908 36.2377C21.9631 35.3092 23.3989 34.7687 25.4002 34.7687V30.7687ZM18.2655 33.2349C16.2801 34.982 15.3508 37.352 15.3508 40.1025H19.3508C19.3508 38.3215 19.9121 37.1141 20.908 36.2377L18.2655 33.2349ZM15.3508 40.1025C15.3508 42.8541 16.2792 45.2329 18.2326 47.03L20.9409 44.0863C19.9131 43.1407 19.3508 41.8824 19.3508 40.1025H15.3508ZM18.2655 47.0596C20.1916 48.7546 22.6315 49.5258 25.4002 49.5258V45.5258C23.3989 45.5258 21.9631 44.9853 20.908 44.0568L18.2655 47.0596ZM25.4002 49.5258C28.1688 49.5258 30.6087 48.7546 32.5348 47.0596L29.8923 44.0568C28.8372 44.9853 27.4015 45.5258 25.4002 45.5258V49.5258ZM32.5677 47.03C34.5211 45.2329 35.4495 42.8541 35.4495 40.1025H31.4495C31.4495 41.8824 30.8873 43.1407 29.8595 44.0863L32.5677 47.03ZM35.4495 40.1025C35.4495 37.352 34.5202 34.982 32.5348 33.2349L29.8923 36.2377C30.8882 37.1141 31.4495 38.3215 31.4495 40.1025H35.4495ZM16.7456 73.9654C19.0871 75.7947 22.0294 76.6253 25.4002 76.6253V72.6253C22.6892 72.6253 20.6827 71.9653 19.2082 70.8133L16.7456 73.9654ZM25.4002 76.6253C28.7676 76.6253 31.6959 75.7959 33.9895 73.9462L31.4785 70.8325C30.0754 71.9641 28.1145 72.6253 25.4002 72.6253V76.6253ZM33.9952 73.9416C36.4286 71.9644 37.596 69.216 37.596 65.9499H33.596C33.596 68.1693 32.8554 69.7138 31.4728 70.8371L33.9952 73.9416ZM37.596 65.9499C37.596 62.7272 36.4155 60.0274 33.9653 58.1132L31.5027 61.2653C32.8686 62.3324 33.596 63.8063 33.596 65.9499H37.596ZM34.0192 58.1569C31.7249 56.2326 28.7854 55.3639 25.4002 55.3639V59.3639C28.0967 59.3639 30.0464 60.0455 31.4488 61.2216L34.0192 58.1569ZM25.4002 55.3639C22.0119 55.3639 19.0584 56.2336 16.7157 58.137L19.2381 61.2415C20.7114 60.0444 22.7067 59.3639 25.4002 59.3639V55.3639ZM16.7214 58.1324C14.3372 60.0552 13.2043 62.7508 13.2043 65.9499H17.2043C17.2043 63.7827 17.9199 62.3046 19.2324 61.2461L16.7214 58.1324ZM13.2043 65.9499C13.2043 69.1932 14.325 71.9368 16.6917 73.9217L19.2621 70.857C17.932 69.7414 17.2043 68.192 17.2043 65.9499H13.2043Z" fill="#00398D" mask="url(#path-1-outside-1_1313_427)"/>
</svg>
