<svg width="400" height="131" viewBox="0 0 400 131" fill="none" xmlns="http://www.w3.org/2000/svg">
<g clip-path="url(#clip0_46_2)">
<path fill-rule="evenodd" clip-rule="evenodd" d="M109.79 0.265993C92.934 2.89699 82.035 19.276 86.182 35.744C88.691 45.71 96.764 53.848 106.693 56.424C110.055 57.296 100.833 57.224 223.167 57.324L336.083 57.417L337.101 57.767C345.021 60.491 344.013 71.979 335.75 73.16C334.978 73.27 282.383 73.328 180.457 73.33C13.145 73.334 25.214 73.269 21.59 74.182C14.919 75.861 8.68 80.254 4.903 85.93C-6.888 103.651 3.507 127.118 24.603 130.404C27.171 130.804 372.019 130.807 374.787 130.407C387.802 128.527 397.822 118.479 399.749 105.376C400.135 102.752 400.127 27.888 399.74 25.213C397.86 12.198 387.812 2.17799 374.709 0.250993C372.254 -0.110007 112.106 -0.096007 109.79 0.265993ZM372.518 1.49699C385.766 2.46699 395.729 11.612 398.297 25.161C398.631 26.921 398.825 98.394 398.508 102.917C397.552 116.585 388.056 126.84 374.333 129.024C372.216 129.362 27.115 129.361 25 129.024C14.544 127.358 6.477 120.781 2.993 111.083C-2.388 96.106 6.495 79.511 22 75.573C25.39 74.713 13.226 74.781 181.333 74.678L336.75 74.583L337.836 74.16C346.107 70.935 346.044 59.59 337.739 56.456L336.75 56.083L224 55.996C100.653 55.899 110.855 55.985 107.038 55.01C99.513 53.087 92.602 47.351 89.394 40.366C81.181 22.481 93.223 2.48599 112.833 1.44399C115.366 1.30899 370.667 1.36099 372.518 1.49699Z" fill="#040404"/>
<path fill-rule="evenodd" clip-rule="evenodd" d="M109.79 0.265993C92.934 2.89699 82.035 19.276 86.182 35.744C88.691 45.71 96.764 53.848 106.693 56.424C110.055 57.296 100.833 57.224 223.167 57.324L336.083 57.417L337.101 57.767C345.021 60.491 344.013 71.979 335.75 73.16C334.978 73.27 282.383 73.328 180.457 73.33C13.145 73.334 25.214 73.269 21.59 74.182C14.919 75.861 8.68 80.254 4.903 85.93C-6.888 103.651 3.507 127.118 24.603 130.404C27.171 130.804 372.019 130.807 374.787 130.407C387.802 128.527 397.822 118.479 399.749 105.376C400.135 102.752 400.127 27.888 399.74 25.213C397.86 12.198 387.812 2.17799 374.709 0.250993C372.254 -0.110007 112.106 -0.096007 109.79 0.265993ZM372.518 1.49699C385.766 2.46699 395.729 11.612 398.297 25.161C398.631 26.921 398.825 98.394 398.508 102.917C397.552 116.585 388.056 126.84 374.333 129.024C372.216 129.362 27.115 129.361 25 129.024C14.544 127.358 6.477 120.781 2.993 111.083C-2.388 96.106 6.495 79.511 22 75.573C25.39 74.713 13.226 74.781 181.333 74.678L336.75 74.583L337.836 74.16C346.107 70.935 346.044 59.59 337.739 56.456L336.75 56.083L224 55.996C100.653 55.899 110.855 55.985 107.038 55.01C99.513 53.087 92.602 47.351 89.394 40.366C81.181 22.481 93.223 2.48599 112.833 1.44399C115.366 1.30899 370.667 1.36099 372.518 1.49699Z" fill="url(#paint0_linear_46_2)"/>
</g>
<defs>
<linearGradient id="paint0_linear_46_2" x1="-11.5788" y1="65.3464" x2="400.034" y2="65.3464" gradientUnits="userSpaceOnUse">
<stop stop-color="#FF7A00"/>
<stop offset="0.229005" stop-color="#BC3AB7"/>
<stop offset="0.463146" stop-color="#00FF75"/>
<stop offset="0.788456" stop-color="#3894FF"/>
<stop offset="1" stop-color="#0D6EFD"/>
</linearGradient>
<clipPath id="clip0_46_2">
<rect width="400" height="130.667" fill="white"/>
</clipPath>
</defs>
</svg>
