<svg width="33" height="33" viewBox="0 0 33 33" fill="none" xmlns="http://www.w3.org/2000/svg">
<g clip-path="url(#clip0_1178_18197)">
<path d="M31.3301 11.41H22.1801V12.94H20.6601V14.46H19.1401V15.98H17.6101V5.32H19.1401V2.27H17.6101V0.75H16.0901V2.27H14.5601V5.32H13.0401V8.37H11.5201V11.41H2.3701V12.94H0.850098V14.46H2.3701V15.98H3.9001V17.51H6.9501V19.03H8.4701V22.08H9.9901V20.56H13.0401V19.03H16.0901V20.56H14.5601V22.08H13.0401V23.6H11.5201V25.13H9.9901V26.65H8.4701V28.18H6.9501V29.7H5.4201V28.18H3.9001V31.22H5.4201V32.75H8.4701V31.22H9.9901V29.7H13.0401V28.18H14.5601V26.65H16.0901V25.13H17.6101V20.56H19.1401V22.08H20.6601V23.6H22.1801V25.13H23.7101V26.65H25.2301V28.18H26.7501V31.22H25.2301V32.75H28.2801V31.22H29.8001V28.18H28.2801V25.13H26.7501V22.08H25.2301V19.03H26.7501V17.51H23.7101V19.03H17.6101V17.51H22.1801V15.98H23.7101V14.46H29.8001V15.98H31.3301V14.46H32.8501V12.94H31.3301V11.41ZM14.5601 17.51H11.5201V15.98H8.4701V14.46H5.4201V12.94H13.0401V14.46H14.5601V17.51Z" fill="#BFFB4F"/>
<path d="M29.8001 15.98H26.7501V17.51H29.8001V15.98Z" fill="#BFFB4F"/>
<path d="M25.2301 29.7002H23.7101V31.2202H25.2301V29.7002Z" fill="#BFFB4F"/>
<path d="M23.7102 28.1802H20.6602V29.7002H23.7102V28.1802Z" fill="#BFFB4F"/>
<path d="M22.1802 8.37012H20.6602V11.4101H22.1802V8.37012Z" fill="#BFFB4F"/>
<path d="M20.6601 26.6499H19.1401V28.1799H20.6601V26.6499Z" fill="#BFFB4F"/>
<path d="M20.6601 5.31982H19.1401V8.36982H20.6601V5.31982Z" fill="#BFFB4F"/>
<path d="M19.1401 25.1299H17.6101V26.6499H19.1401V25.1299Z" fill="#BFFB4F"/>
<path d="M8.47007 22.0801H6.95007V25.1301H8.47007V22.0801Z" fill="#BFFB4F"/>
<path d="M6.95004 25.1299H5.42004V28.1799H6.95004V25.1299Z" fill="#BFFB4F"/>
</g>
<defs>
<clipPath id="clip0_1178_18197">
<rect width="32" height="32" fill="white" transform="translate(0.850098 0.75)"/>
</clipPath>
</defs>
</svg>
